<?xml version="1.0" encoding="utf-8"?>
<!-- Generator: Adobe Illustrator 23.0.1, SVG Export Plug-In . SVG Version: 6.00 Build 0)  -->
<svg version="1.1" id="Layer_1" xmlns="http://www.w3.org/2000/svg" xmlns:xlink="http://www.w3.org/1999/xlink" x="0px" y="0px"
	 viewBox="0 0 32 32" style="enable-background:new 0 0 32 32;" xml:space="preserve">
<style type="text/css">
	.st0{fill:#FFFFFF;}
	.st1{fill:none;}
</style>
<g>
	<path class="st0" d="M26.998,15H7.76l3.879-3.231c0.424-0.354,0.481-0.984,0.128-1.409c-0.354-0.424-0.983-0.48-1.409-0.128l-6,5
		c-0.03,0.025-0.049,0.058-0.076,0.086c-0.016,0.016-0.037,0.024-0.052,0.042c-0.011,0.014-0.014,0.031-0.025,0.045
		c-0.06,0.079-0.105,0.165-0.139,0.257c-0.008,0.021-0.021,0.04-0.027,0.061c-0.032,0.112-0.043,0.228-0.035,0.345
		c0.002,0.032,0.013,0.062,0.018,0.094c0.01,0.06,0.014,0.12,0.035,0.179c0.009,0.024,0.026,0.043,0.036,0.066
		c0.017,0.037,0.037,0.071,0.058,0.106c0.045,0.074,0.098,0.14,0.16,0.199c0.018,0.017,0.026,0.041,0.046,0.057l6,5
		C10.545,21.924,10.772,22,10.997,22c0.287,0,0.571-0.122,0.77-0.359c0.354-0.425,0.296-1.056-0.128-1.409L7.761,17h19.237
		c0.553,0,1-0.447,1-1S27.551,15,26.998,15z"/>
	<rect class="st1" width="32" height="32"/>
</g>
</svg>
