<?xml version="1.0" encoding="utf-8"?>
<!-- Generator: Adobe Illustrator 23.0.1, SVG Export Plug-In . SVG Version: 6.00 Build 0)  -->
<svg version="1.1" id="Layer_1" xmlns="http://www.w3.org/2000/svg" xmlns:xlink="http://www.w3.org/1999/xlink" x="0px" y="0px"
	 viewBox="0 0 32 32" style="enable-background:new 0 0 32 32;" xml:space="preserve">
<style type="text/css">
	.st0{fill:none;}
</style>
<g>
	<g>
		<path d="M15.981,11.989c0.266,0,0.52,0.105,0.707,0.293l6.02,6.022c0.391,0.391,0.391,1.023,0,1.414s-1.023,0.391-1.414,0
			l-5.311-5.313l-5.272,5.311c-0.392,0.39-1.023,0.393-1.415,0.005c-0.392-0.39-0.394-1.022-0.005-1.415l5.98-6.022
			c0.188-0.188,0.442-0.295,0.708-0.295C15.98,11.989,15.98,11.989,15.981,11.989z"/>
	</g>
	<rect transform="matrix(-1 -1.224647e-16 1.224647e-16 -1 32 32)" class="st0" width="32" height="32"/>
</g>
</svg>
