<?xml version="1.0" ?><!DOCTYPE svg  PUBLIC '-//W3C//DTD SVG 1.1//EN'  'http://www.w3.org/Graphics/SVG/1.1/DTD/svg11.dtd'><svg enable-background="new 0 0 128 128" height="128px" id="Layer_1" version="1.1" viewBox="0 0 128 128" width="128px" xml:space="preserve" xmlns="http://www.w3.org/2000/svg" xmlns:xlink="http://www.w3.org/1999/xlink"><g><path d="M128,112c0,8.8-7.2,16-16,16H16c-8.8,0-16-7.2-16-16V16C0,7.2,7.2,0,16,0h96c8.8,0,16,7.2,16,16V112z" fill="#176AE6"/><path d="M53.328,128V78.188H35.549V60.425h17.783V44.029c0-16.537,9.764-26.279,24.514-26.279   c7.068,0,14.605,1.652,14.605,1.652v17.912l-11.874-0.005c-8.022,0-9.522,3.979-9.522,9.572v13.544h20.555l-2.903,17.763H71.055   V128H53.328z" fill="#FFFFFF"/></g></svg>