<?xml version="1.0" encoding="utf-8"?>
<!-- Generator: Adobe Illustrator 23.0.1, SVG Export Plug-In . SVG Version: 6.00 Build 0)  -->
<svg version="1.1" id="Layer_1" xmlns="http://www.w3.org/2000/svg" xmlns:xlink="http://www.w3.org/1999/xlink" x="0px" y="0px"
	 viewBox="0 0 32 32" style="enable-background:new 0 0 32 32;" xml:space="preserve">
<style type="text/css">
	.st0{fill:none;}
</style>
<g>
	<g>
		<path d="M26,6H6C4.897,6,4,6.897,4,8v16c0,1.103,0.897,2,2,2h20c1.103,0,2-0.897,2-2V8C28,6.897,27.103,6,26,6z M26,8
			l-0.002,12.584l-2.291-2.291c-0.391-0.391-1.023-0.391-1.414,0l-3.174,3.174l-8.381-9.143c-0.195-0.213-0.469-0.348-0.761-0.324
			c-0.289,0.007-0.561,0.138-0.745,0.359L6,16.237V8H26z M6,19.363l4.036-4.844L18.727,24H6V19.363z M21.44,24l-0.969-1.057
			L23,20.414l2.997,2.997l0,0.589H21.44z"/>
		<path d="M20.5,17c1.93,0,3.5-1.57,3.5-3.5S22.43,10,20.5,10S17,11.57,17,13.5S18.57,17,20.5,17z M20.5,12
			c0.827,0,1.5,0.673,1.5,1.5S21.327,15,20.5,15S19,14.327,19,13.5S19.673,12,20.5,12z"/>
	</g>
	<rect class="st0" width="32" height="32"/>
</g>
</svg>
