<?xml version="1.0" encoding="utf-8"?>
<!-- Generator: Adobe Illustrator 23.0.1, SVG Export Plug-In . SVG Version: 6.00 Build 0)  -->
<svg version="1.1" id="Layer_1" xmlns="http://www.w3.org/2000/svg" xmlns:xlink="http://www.w3.org/1999/xlink" x="0px" y="0px"
	 viewBox="0 0 128 128" style="enable-background:new 0 0 128 128;" xml:space="preserve">
<style type="text/css">
	.st0{fill:#FF9800;}
</style>
<path class="st0" d="M112,0H16C7.2,0,0,7.2,0,16v96c0,8.8,7.2,16,16,16h96c8.8,0,16-7.2,16-16V16C128,7.2,120.8,0,112,0z
	 M105.716,100.403c-2.992,3.957-6.527,7.311-11.101,9.414c-0.617,0.284-1.282,0.465-1.925,0.693c-1.563,0-3.125,0-4.688,0
	c-0.553-0.074-1.105-0.154-1.659-0.221c-9.621-1.165-18.555-4.341-26.873-9.268c-10.394-6.156-18.792-14.415-25.396-24.492
	c-6.436-9.821-10.546-20.558-12.281-32.183c-0.289-1.938-0.488-3.89-0.728-5.835c0-2.063,0-4.125,0-6.188
	c0.053-0.209,0.148-0.416,0.153-0.626c0.04-1.763,0.774-3.251,1.776-4.647c2.579-3.589,5.904-6.351,9.662-8.596
	c2.103-1.257,4.401-1.229,6.581-0.247c1.754,0.79,3.476,1.73,5.026,2.858c0.792,0.577,1.323,1.652,1.722,2.606
	c1.816,4.344,2.732,8.94,3.58,13.546c0.232,1.258,0.351,2.538,0.619,3.787c0.365,1.696-0.05,3.204-1.123,4.468
	c-1.269,1.496-2.647,2.906-4.045,4.285c-1.241,1.225-2.574,2.356-3.982,3.634c6.178,15.25,16.842,26.452,30.797,34.8
	c1.774-1.529,3.342-2.961,4.999-4.281c1.314-1.047,2.702-2.012,4.123-2.91c1.242-0.785,2.632-0.895,4.061-0.498
	c5.718,1.59,11.37,3.353,16.656,6.123c1.576,0.826,2.854,1.894,3.419,3.653c0.579,1.802,1.302,3.57,1.712,5.409
	C107.173,97.355,106.748,99.039,105.716,100.403z"/>
</svg>
