<?xml version="1.0" encoding="utf-8"?>
<!-- Generator: Adobe Illustrator 23.0.1, SVG Export Plug-In . SVG Version: 6.00 Build 0)  -->
<svg version="1.1" id="Layer_1" xmlns="http://www.w3.org/2000/svg" xmlns:xlink="http://www.w3.org/1999/xlink" x="0px" y="0px"
	 viewBox="0 0 32 32" style="enable-background:new 0 0 32 32;" xml:space="preserve">
<style type="text/css">
	.st0{fill:#76B900;}
	.st1{fill:none;}
</style>
<g>
	<g>
		<g>
			<path class="st0" d="M16,28C9.383,28,4,22.617,4,16S9.383,4,16,4s12,5.383,12,12S22.617,28,16,28z M16,6C10.486,6,6,10.486,6,16
				s4.486,10,10,10s10-4.486,10-10S21.514,6,16,6z"/>
		</g>
		<g>
			<path class="st0" d="M13,21c-0.183,0-0.365-0.05-0.525-0.149C12.18,20.668,12,20.347,12,20v-8c0-0.347,0.18-0.668,0.475-0.851
				c0.295-0.184,0.663-0.197,0.973-0.044l8,4C21.786,15.275,22,15.621,22,16s-0.214,0.725-0.553,0.895l-8,4
				C13.306,20.965,13.153,21,13,21z M14,13.618v4.764L18.764,16L14,13.618z"/>
		</g>
	</g>
	<rect class="st1" width="32" height="32"/>
</g>
</svg>
