<?xml version="1.0" encoding="utf-8"?>
<!-- Generator: Adobe Illustrator 23.0.1, SVG Export Plug-In . SVG Version: 6.00 Build 0)  -->
<svg version="1.1" id="Layer_1" xmlns="http://www.w3.org/2000/svg" xmlns:xlink="http://www.w3.org/1999/xlink" x="0px" y="0px"
	 viewBox="0 0 32 32" style="enable-background:new 0 0 32 32;" xml:space="preserve">
<style type="text/css">
	.st0{fill:none;}
</style>
<g>
	<path d="M27.707,4.293c-0.273-0.275-0.683-0.366-1.049-0.232l-22,8c-0.368,0.134-0.624,0.47-0.655,0.86s0.169,0.763,0.512,0.953
		l8.75,4.861l4.861,8.75C18.303,27.805,18.639,28,19,28c0.026,0,0.053-0.001,0.079-0.003c0.391-0.031,0.727-0.287,0.86-0.655l8-22
		C28.072,4.977,27.982,4.567,27.707,4.293z M18.81,24.598l-3.569-6.424l5.467-5.467c0.391-0.391,0.391-1.023,0-1.414
		s-1.023-0.391-1.414,0l-5.467,5.467l-6.424-3.569l17.926-6.519L18.81,24.598z"/>
	<rect x="0" y="0" class="st0" width="32" height="32"/>
</g>
</svg>
