<svg width="16" height="16" viewBox="0 0 16 16" fill="none" xmlns="http://www.w3.org/2000/svg">
<path d="M14.5 6C14.5 5.9535 14.4935 5.907 14.481 5.863L13.481 2.363C13.4195 2.1475 13.223 2 13 2H3C2.777 2 2.5805 2.1475 2.519 2.3625L1.519 5.8625C1.5065 5.907 1.5 5.9535 1.5 6C1.5 6.583 1.7865 7.367 2.5 7.7565V12.5C2.5 13.103 2.8995 14 4 14H6C6.485 14 7 13.6495 7 13V10H9V13C9 13.485 9.3505 14 10 14H12C12.603 14 13.5 13.6005 13.5 12.5V7.756C14.2135 7.3665 14.5 6.5825 14.5 6ZM3.377 3H12.623L13.498 6.063C13.483 6.315 13.363 7 12.5 7C11.587 7 11.504 6.232 11.5 6C11.5 5.7235 11.2765 5.5 11 5.5C10.7235 5.5 10.5 5.7235 10.5 6C10.5 6.167 10.4515 7 9.5 7C8.5875 7 8.504 6.233 8.5 5.997C8.5 5.958 8.486 5.924 8.4775 5.8875C8.471 5.86 8.471 5.83 8.4605 5.804C8.4485 5.7765 8.4275 5.7555 8.411 5.7305C8.392 5.7015 8.3775 5.67 8.353 5.6455C8.3365 5.629 8.314 5.621 8.2955 5.607C8.263 5.5825 8.2325 5.555 8.194 5.539C8.1345 5.5135 8.069 5.5 8 5.5C7.7235 5.5 7.5 5.7235 7.5 6C7.5 6.167 7.4515 7 6.5 7C5.5875 7 5.504 6.233 5.5 5.997C5.5 5.958 5.486 5.924 5.4775 5.8875C5.471 5.86 5.471 5.83 5.4605 5.804C5.4485 5.7765 5.4275 5.7555 5.411 5.7305C5.392 5.7015 5.3775 5.67 5.353 5.6455C5.3365 5.629 5.314 5.621 5.2955 5.607C5.263 5.5825 5.2325 5.555 5.194 5.539C5.1345 5.5135 5.069 5.5 5 5.5C4.7235 5.5 4.5 5.7235 4.5 6C4.5 6.167 4.4515 7 3.5 7C2.656 7 2.521 6.3435 2.5025 6.061L3.377 3ZM12.5 12.5C12.5 12.903 12.225 12.994 12 13H10V10C10 9.3505 9.485 9 9 9H7C6.3505 9 6 9.515 6 10V13H4C3.597 13 3.506 12.725 3.5 12.5V8C4.2 8 4.682 7.7245 5 7.3525C5.318 7.724 5.8 8 6.5 8C7.2 8 7.682 7.7245 8 7.3525C8.318 7.724 8.8 8 9.5 8C10.2 8 10.682 7.7245 11 7.3525C11.318 7.724 11.8 8 12.5 8V12.5Z" fill="black" fill-opacity="0.9"/>
</svg>
