<?xml version="1.0" encoding="utf-8"?>
<!-- Generator: Adobe Illustrator 23.0.1, SVG Export Plug-In . SVG Version: 6.00 Build 0)  -->
<svg version="1.1" id="Layer_1" xmlns="http://www.w3.org/2000/svg" xmlns:xlink="http://www.w3.org/1999/xlink" x="0px" y="0px"
	 viewBox="0 0 216 48" style="enable-background:new 0 0 216 48;" xml:space="preserve">
<style type="text/css">
	.st0{fill:#3FC600;}
	.st1{fill:#FFFFFF;}
</style>
<g>
	<path class="st0" d="M42.048,0c0.978,0.19,1.943,0.419,2.793,0.974c1.988,1.298,3.103,3.108,3.106,5.51
		c0.011,11.649,0.005,23.299,0.005,34.948c0,3.244-2.229,5.91-5.421,6.483c-0.092,0.017-0.194,0.004-0.267,0.084
		c-12.168,0-24.336,0-36.504,0c-0.09-0.027-0.179-0.063-0.27-0.081c-2.386-0.474-4.06-1.824-5.011-4.071
		C0.229,43.26,0.159,42.628,0,42.018C0,30.006,0,17.994,0,5.982c0.07-0.048,0.06-0.125,0.069-0.195
		C0.436,3.04,2.275,0.946,4.944,0.22C5.216,0.146,5.51,0.155,5.76,0c0.024,0,0.048,0,0.072,0C5.88,0.051,5.928,0.043,5.976,0
		C18,0,30.024,0,42.048,0z"/>
	<path class="st1" d="M4.375,24.008c0,5.777,0,11.555,0,17.332c0,1.393,0.927,2.323,2.318,2.323c11.543,0,23.086,0,34.629,0
		c1.366,0,2.308-0.94,2.308-2.302c0-11.567,0-23.133,0-34.7c0-1.376-0.923-2.292-2.305-2.292c-11.555,0-23.11,0-34.665,0
		c-1.363,0-2.285,0.916-2.285,2.272C4.375,12.43,4.375,18.219,4.375,24.008z"/>
	<path d="M216,37.045c-0.203,0.493-0.437,0.96-0.941,1.221c-1.203,0.622-2.574-0.193-2.578-1.551c-0.009-3.003,0-6.006-0.005-9.008
		c-0.003-1.977-0.625-3.727-1.979-5.183c-2.713-2.917-7.086-2.516-9.331,0.839c-0.874,1.306-1.302,2.742-1.304,4.307
		c-0.004,2.967-0.001,5.934-0.002,8.9c0,1.076-0.719,1.837-1.734,1.839c-1.042,0.002-1.77-0.754-1.77-1.847
		c-0.001-5.874-0.001-11.747,0-17.621c0-1.113,0.74-1.89,1.783-1.879c1.027,0.012,1.721,0.775,1.722,1.895c0,0.163,0,0.325,0,0.557
		c0.433-0.326,0.789-0.62,1.17-0.877c3.816-2.566,8.732-1.991,11.892,1.357c1.752,1.857,2.768,4.033,3.005,6.576
		c0.01,0.105,0.047,0.208,0.072,0.312C216,30.27,216,33.658,216,37.045z"/>
	<path d="M162.066,19.472c2.137-1.918,4.539-2.661,7.275-2.259c2.77,0.408,4.711,2.034,6.211,4.348
		c0.482-0.695,0.941-1.337,1.498-1.9c2.262-2.283,4.997-2.986,8.082-2.32c2.597,0.561,4.396,2.25,5.772,4.43
		c1.097,1.737,1.594,3.666,1.608,5.71c0.021,3.062,0.009,6.125,0.006,9.187c-0.001,1.047-0.74,1.807-1.739,1.806
		c-0.999,0-1.754-0.757-1.757-1.796c-0.01-3.11,0.023-6.221-0.022-9.331c-0.028-1.889-0.687-3.571-1.995-4.96
		c-2.298-2.44-5.697-2.35-7.872,0.201c-1.155,1.354-1.783,2.93-1.802,4.708c-0.033,3.11-0.012,6.221-0.021,9.331
		c-0.004,1.421-1.328,2.268-2.576,1.639c-0.618-0.312-0.926-0.84-0.926-1.544c0.002-3.038,0.022-6.077-0.009-9.115
		c-0.02-1.975-0.649-3.745-2.012-5.213c-2.227-2.399-5.595-2.364-7.781,0.078c-1.326,1.482-1.92,3.249-1.935,5.211
		c-0.022,3.014-0.004,6.029-0.009,9.043c-0.001,0.828-0.487,1.461-1.26,1.68c-0.761,0.215-1.535-0.078-1.972-0.751
		c-0.196-0.302-0.263-0.641-0.263-0.994c-0.001-5.909-0.003-11.817,0.001-17.726c0.001-1.056,0.762-1.83,1.768-1.825
		c0.991,0.005,1.719,0.77,1.728,1.818C162.067,19.071,162.066,19.213,162.066,19.472z"/>
	<path d="M87.992,21.563c0.432-0.602,0.823-1.173,1.295-1.681c2.271-2.443,5.071-3.218,8.276-2.544
		c2.423,0.51,4.157,2.044,5.525,4.031c1.261,1.832,1.85,3.891,1.869,6.101c0.026,3.074,0.011,6.149,0.006,9.224
		c-0.001,1.016-0.75,1.777-1.729,1.781c-1,0.004-1.768-0.755-1.77-1.783c-0.007-3.039,0.013-6.077-0.009-9.116
		c-0.014-2.01-0.667-3.792-2.073-5.257c-2.261-2.355-5.64-2.249-7.775,0.233c-1.295,1.505-1.862,3.265-1.855,5.237
		c0.011,2.931,0.005,5.861,0.001,8.792c-0.001,1.022-0.602,1.756-1.522,1.884c-1.044,0.145-1.966-0.634-1.969-1.696
		c-0.009-2.979,0.004-5.957-0.008-8.936c-0.007-1.773-0.465-3.408-1.528-4.857c-1.48-2.015-3.68-2.814-5.979-2.069
		c-1.502,0.487-2.513,1.59-3.268,2.936c-0.672,1.199-0.96,2.504-0.965,3.869c-0.01,3.003-0.001,6.005-0.005,9.008
		c-0.001,0.811-0.475,1.448-1.221,1.677c-0.747,0.229-1.548-0.053-1.992-0.706c-0.201-0.297-0.287-0.633-0.287-0.987
		c-0.002-5.933-0.004-11.866,0.001-17.799c0.001-1.027,0.773-1.795,1.764-1.794c0.994,0.001,1.727,0.767,1.736,1.812
		c0.001,0.143,0,0.287,0,0.542c2.121-1.901,4.529-2.656,7.272-2.251C84.552,17.622,86.495,19.245,87.992,21.563z"/>
	<path d="M111.21,29.596c0.345,1.357,1.006,2.447,1.971,3.354c2.002,1.881,4.384,2.327,7.009,1.845
		c1.643-0.302,3.046-1.031,4.176-2.282c0.646-0.715,1.701-0.747,2.427-0.116c0.71,0.618,0.805,1.687,0.173,2.422
		c-1.663,1.935-3.788,3.036-6.289,3.451c-1.661,0.275-3.32,0.316-4.965-0.075c-4.407-1.047-7.715-4.74-8.178-9.245
		c-0.51-4.962,2.133-8.963,6.155-10.819c3.249-1.499,6.537-1.454,9.677,0.283c3.179,1.759,5.002,4.526,5.512,8.142
		c0.056,0.394,0.07,0.789,0.069,1.185c-0.002,1.11-0.735,1.853-1.843,1.854c-4.367,0.002-8.734,0.001-13.101,0.001
		C113.093,29.596,112.184,29.596,111.21,29.596z M125.173,26.043c-0.471-2.64-3.352-5.584-7.241-5.432
		c-3.917,0.153-6.395,3.335-6.661,5.432C115.905,26.043,120.537,26.043,125.173,26.043z"/>
	<path d="M138.918,30.586c-1.113,1.387-2.193,2.733-3.273,4.079c-0.841,1.047-1.673,2.102-2.526,3.14
		c-0.667,0.811-1.692,0.901-2.484,0.247c-0.764-0.63-0.859-1.67-0.215-2.474c2.01-2.508,4.024-5.013,6.036-7.52
		c0.067-0.084,0.13-0.17,0.207-0.272c-0.873-1.091-1.74-2.177-2.609-3.261c-1.216-1.515-2.438-3.026-3.65-4.545
		c-0.643-0.806-0.519-1.855,0.28-2.495c0.744-0.596,1.81-0.485,2.437,0.29c1.862,2.304,3.711,4.618,5.565,6.928
		c0.067,0.083,0.139,0.162,0.239,0.279c0.516-0.64,1.018-1.259,1.517-1.882c1.403-1.75,2.804-3.501,4.208-5.25
		c0.646-0.805,1.737-0.976,2.488-0.394c0.819,0.635,0.95,1.696,0.271,2.548c-2.002,2.515-4.017,5.019-6.034,7.522
		c-0.153,0.189-0.182,0.308-0.015,0.515c1.999,2.471,3.982,4.955,5.98,7.426c0.519,0.642,0.677,1.334,0.296,2.071
		c-0.336,0.65-0.921,0.961-1.658,0.933c-0.564-0.021-0.989-0.309-1.336-0.744c-1.301-1.632-2.607-3.259-3.912-4.887
		C140.137,32.101,139.543,31.365,138.918,30.586z"/>
	<path d="M62.972,27.779c0-2.941-0.004-5.882,0.002-8.823c0.003-1.23,0.958-2.027,2.137-1.806c0.791,0.148,1.387,0.92,1.389,1.819
		c0.005,1.777,0.001,3.553,0.001,5.33c0,4.106,0.003,8.211-0.002,12.317c-0.002,1.413-1.338,2.279-2.57,1.66
		c-0.643-0.323-0.962-0.869-0.959-1.602c0.006-1.248,0.001-2.497,0.001-3.745C62.972,31.212,62.972,29.496,62.972,27.779z"/>
	<path class="st0" d="M152.267,38.475c-1.244-0.002-2.25-1.027-2.238-2.281c0.012-1.264,1.01-2.245,2.276-2.237
		c1.242,0.008,2.266,1.044,2.252,2.278C154.543,37.48,153.523,38.478,152.267,38.475z"/>
	<path class="st0" d="M62.478,12.115c0.015-1.267,1.023-2.25,2.283-2.228c1.221,0.022,2.242,1.053,2.241,2.264
		c-0.001,1.277-1.034,2.269-2.345,2.254C63.43,14.39,62.463,13.373,62.478,12.115z"/>
	<path class="st0" d="M22.296,20.11c0.887,1.438,1.773,2.875,2.66,4.314c2.188,3.551,4.377,7.101,6.561,10.654
		c0.421,0.685,0.27,1.338-0.409,1.759c-2.381,1.478-4.764,2.952-7.151,4.419c-0.794,0.488-1.767-0.065-1.767-0.998
		c-0.003-4.515-0.004-9.03,0-13.545c0.002-2.065,0.017-4.13,0.026-6.195c0.001-0.129,0-0.259,0-0.388
		C22.243,20.124,22.27,20.117,22.296,20.11z"/>
	<path class="st0" d="M22.14,19.942c-0.527-1.01-1.17-1.951-1.763-2.921c-1.306-2.137-2.63-4.263-3.945-6.395
		c-0.293-0.476-0.221-0.793,0.252-1.084c1.508-0.932,3.021-1.855,4.527-2.789c0.238-0.147,0.485-0.171,0.718-0.064
		c0.245,0.113,0.273,0.364,0.273,0.619c-0.003,4.07-0.002,8.14-0.004,12.209c0,0.142,0.022,0.29-0.066,0.419L22.14,19.942z"/>
	<path d="M22.132,19.935c0.008-0.002,0.016-0.003,0.024-0.005c-0.005,0.003-0.011,0.007-0.016,0.011
		C22.14,19.942,22.132,19.935,22.132,19.935z"/>
</g>
</svg>
