<?xml version="1.0" standalone="no"?>
<!DOCTYPE svg PUBLIC "-//W3C//DTD SVG 1.1//EN" "http://www.w3.org/Graphics/SVG/1.1/DTD/svg11.dtd" >
<svg xmlns="http://www.w3.org/2000/svg">
<metadata>Generated by IcoMoon</metadata>
<defs>
<font id="silkroad" horiz-adv-x="1024">
<font-face units-per-em="1024" ascent="960" descent="-64" />
<missing-glyph horiz-adv-x="1024" />
<glyph unicode="&#x20;" horiz-adv-x="512" d="" />
<glyph unicode="&#xe900;" glyph-name="doctor" d="M819.2 313.6c-18.496 13.888-42.368 25.6-70.336 35.584-0.512 0.192-1.024 0.32-1.536 0.512-20.736 7.296-43.456 13.76-69.12 18.88-45.76 9.088-83.2-31.68-116.224-67.776-13.888-15.168-39.744-43.392-49.984-44.736-10.24 1.344-36.096 29.568-49.984 44.736-32.96 36.096-70.464 76.864-116.224 67.776-60.992-12.096-108.48-30.592-140.992-54.976-74.624-56-76.8-115.008-76.8-121.6v-64c0-70.464 57.408-96 96-96h576c38.592 0 96 25.536 96 96v64c0 6.592-2.112 65.6-76.8 121.6zM832 128c0-25.728-17.6-31.616-32-32h-575.616c-14.784 0.384-32.384 6.272-32.384 32v63.104c0.064 1.344 2.56 34.816 51.2 71.232 11.584 8.704 26.816 16.576 44.8 23.552v-35.136c-46.016-14.464-64-58.88-64-90.816 0-17.472 14.080-31.552 31.616-31.744 0.128 0 0.256 0 0.384 0 17.344 0 31.552 14.080 32 31.424 0.384 14.784 6.208 32.384 32 32.384s31.616-17.6 32-32c0-17.664 14.336-32 32-32s32 14.336 32 32c0 31.936-17.984 76.352-64 90.816v53.504c2.176 0.448 4.032 1.024 6.272 1.472 0.256 0.064 0.64 0.064 0.96 0.064 11.392 0 42.24-33.664 55.616-48.32 30.784-33.664 59.904-65.472 97.152-65.472s66.368 31.808 97.216 65.472c13.76 14.976 47.232 49.536 56.576 48.256 13.632-2.688 26.304-5.824 38.272-9.216v-104.576c0-17.664 14.336-32 32-32s31.936 14.336 31.936 32v78.336c4.416-2.624 9.088-5.184 12.8-7.936 48.64-36.416 51.136-69.888 51.2-70.4v-64zM354.368 408.96c33.344-37.76 86.208-56.896 157.248-56.896 70.976 0 123.968 19.136 157.248 56.896 40.96 46.336 35.008 103.040 34.752 103.040v64c0 4.032-0.64 99.776-56.704 164.864-2.304 2.688-5.184 4.544-8.064 6.272-5.76 65.344-60.096 116.864-126.848 116.864-66.56 0-120.768-51.2-126.784-116.224-3.264-1.792-6.4-3.968-8.96-6.912-56-65.088-56.64-160.832-56.64-164.864l0.256-60.032c-0.32-2.432-6.976-60.032 34.496-107.008zM512 800c35.264 0 64-28.736 64-64s-28.736-64-64-64-64 28.736-64 64 28.736 64 64 64zM383.616 512v63.936c0 0.64 0.832 47.872 20.992 90.88 22.848-35.328 62.336-58.816 107.392-58.816 44.736 0 84.096 23.168 106.944 58.048 19.84-42.752 20.672-89.536 20.672-90.048l0.256-67.968c0.064-0.32 2.88-32-18.944-56.768-20.672-23.36-57.408-35.264-109.312-35.264-51.392 0-88 11.648-108.736 34.688-22.528 24.96-19.584 56.32-19.264 61.312z" />
<glyph unicode="&#xe901;" glyph-name="shop" d="M895.36 806.336c-3.008 14.912-16.128 25.664-31.36 25.664h-704c-15.232 0-28.352-10.752-31.36-25.664l-64-320.064c-3.456-17.344 7.744-34.24 25.088-37.696 16.32-3.2 31.616 6.656 36.352 22.080 0.704-0.512 1.28-1.088 1.92-1.6v-309.12c0-38.592 25.536-96 96-96h576c38.592 0 96 25.536 96 96v309.12c0.64 0.448 1.216 1.024 1.856 1.536 4.16-13.44 16.256-22.592 30.080-22.592 2.112 0 4.224 0.192 6.336 0.64 17.344 3.456 28.608 20.288 25.152 37.632l-64.064 320.064zM186.24 768h651.52l41.856-209.216c-1.088-25.536-21.888-46.016-47.616-46.016-26.432 0-48 21.504-48 48 0 17.664-14.336 32-32 32s-32-14.336-32-32c0-26.496-21.568-48-48-48s-48 21.504-48 48c0 17.664-14.336 32-32 32s-32-14.336-32-32c0-26.496-21.504-48-48-48s-48 21.504-48 48c0 17.664-14.336 32-32 32s-32-14.336-32-32c0-26.496-21.504-48-48-48s-48 21.504-48 48c0 17.664-14.336 32-32 32s-32-14.336-32-32c0-26.496-21.504-48-48-48-25.792 0-46.528 20.544-47.616 46.016l41.856 209.216zM448 127.936h-128v192.128h128v-192.128zM832 159.936c0-25.728-17.6-31.616-32-32h-288v224.128c0 17.664-14.336 32-32 32h-192c-17.664 0-32-14.336-32-32v-224.128h-32c-25.792 0-31.616 17.6-32 32v288.832c31.36 0 59.648 13.056 80 33.856 20.352-20.864 48.64-33.856 80-33.856s59.648 13.056 80 33.856c20.352-20.864 48.64-33.856 80-33.856s59.648 13.056 80 33.856c20.352-20.864 48.64-33.856 80-33.856s59.648 13.056 80 33.856c20.352-20.864 48.64-33.856 80-33.856v-288.832zM608 384.064c-17.664 0-32-14.336-32-32v-128c0-17.664 14.336-32 32-32h128c17.664 0 32 14.336 32 32v128c0 17.664-14.336 32-32 32h-128zM704 256.064h-64v64h64v-64z" />
<glyph unicode="&#xe902;" glyph-name="home" d="M947.52 505.344l-83.52 64.256v166.4c0 17.728-14.336 32-32 32h-128c-17.664 0-32-14.336-32-32v-18.752l-140.48 108.16c-11.52 8.832-27.52 8.832-38.976 0l-416-320.064c-10.88-8.384-15.232-22.72-10.752-35.712 4.352-12.928 16.512-21.632 30.208-21.632h32v-288c0-38.592 25.536-96 96-96h576c38.592 0 96 25.536 96 96v288h32c13.696 0 25.856 8.704 30.336 21.696 4.352 12.928 0.064 27.264-10.816 35.648zM736 672v32h64v-85.184l-64.704 49.792c0.128 1.152 0.704 2.176 0.704 3.392zM512 759.68l320-246.208v-1.472h-640v1.472l320 246.208zM448 127.936h-128v192.128h128v-192.128zM832 159.936c0-25.728-17.6-31.616-32-32h-288v224.128c0 17.664-14.336 32-32 32h-192c-17.664 0-32-14.336-32-32v-224.128h-32c-25.792 0-31.616 17.6-32 32v288.064h640v-288.064zM608 192.064h128c17.664 0 32 14.336 32 32v128c0 17.664-14.336 32-32 32h-128c-17.664 0-32-14.336-32-32v-128c0-17.664 14.336-32 32-32zM640 320.064h64v-64h-64v64z" />
<glyph unicode="&#xe903;" glyph-name="school" d="M608 128h128c17.664 0 32 14.336 32 32v128c0 17.664-14.336 32-32 32h-128c-17.664 0-32-14.336-32-32v-128c0-17.664 14.336-32 32-32zM640 256h64v-64h-64v64zM957.696 427.904l-64 160c-4.288 10.816-14.208 18.432-25.664 19.904l-255.040 31.808c-13.504 28.416-38.464 49.984-68.992 59.136v37.248h128c17.664 0 32 14.336 32 32v96c0 17.664-14.336 32-32 32h-160c-17.664 0-32-14.336-32-32v-165.248c-30.528-9.152-55.488-30.72-68.992-59.136l-254.976-31.872c-11.584-1.408-21.376-9.088-25.728-19.84l-64-160c-3.968-9.856-2.752-21.056 3.2-29.824s15.872-14.080 26.496-14.080h32v-288c0-38.592 25.536-96 96-96h576c38.592 0 96 25.536 96 96v288h32c10.624 0 20.544 5.312 26.496 14.080s7.104 19.968 3.2 29.824zM544 832h96v-32h-96v32zM512 640c26.496 0 48-21.504 48-48s-21.504-48-48-48-48 21.504-48 48 21.504 48 48 48zM182.656 546.624l219.136 27.392c8.704-53.184 54.656-94.016 110.208-94.016s101.504 40.832 110.144 93.952l219.136-27.392 39.488-98.56h-16.448c-0.128 0-0.192 0.064-0.32 0.064s-0.192-0.064-0.32-0.064h-703.36c-0.128 0-0.192 0.064-0.32 0.064s-0.192-0.064-0.32-0.064h-16.448l39.424 98.624zM448 64h-128v192h128v-192zM832 96c0-25.728-17.6-31.616-32-32h-288v224c0 17.664-14.336 32-32 32h-192c-17.664 0-32-14.336-32-32v-224h-32c-25.792 0-31.616 17.6-32 32v288h640v-288z" />
<glyph unicode="&#xe904;" glyph-name="truck" d="M958.912 822.336c-5.952 6.144-14.272 9.664-22.912 9.664h-640c-17.664 0-32-14.336-32-32v-96.576c-116.032-8.256-208-105.28-208-223.424v-256c0-17.664 14.336-32 32-32h33.6c-0.768-5.248-1.6-10.496-1.6-16 0-61.76 50.24-112 112-112s112 50.24 112 112c0 5.504-0.832 10.752-1.6 16h259.2c-0.768-5.248-1.6-10.496-1.6-16 0-61.76 50.24-112 112-112s112 50.24 112 112c0 5.504-0.832 10.752-1.6 16h97.6c17.344 0 31.488 13.824 32 31.104l16 576c0.256 8.64-3.072 17.024-9.088 23.232zM123.264 512h147.776l-16-64h-135.040v32c0 10.944 1.152 21.632 3.264 32zM232 128c-26.496 0-48 21.568-48 48s21.504 48 48 48 48-21.568 48-48-21.504-48-48-48zM712 128c-26.432 0-48 21.568-48 48s21.568 48 48 48 48-21.568 48-48-21.568-48-48-48zM888.896 256h-96.896c-0.512 0-0.96-0.256-1.472-0.32-20.224 19.904-47.936 32.32-78.528 32.32-30.4 0-57.92-12.288-78.144-32h-323.712c-20.224 19.712-47.744 32-78.144 32-30.592 0-58.24-12.352-78.528-32.32-0.512 0.064-0.96 0.32-1.472 0.32h-32v128h160c14.656 0 27.456 9.984 31.040 24.256l32 128c2.432 9.536 0.256 19.712-5.824 27.456s-15.36 12.288-25.216 12.288h-159.168c29.248 38.592 75.136 64 127.168 64h16c17.664 0 32 14.336 32 32v96h575.104l-14.208-512zM448.256 384.96c2.56-0.64 5.184-0.96 7.744-0.96 14.4 0 27.392 9.664 31.040 24.256l57.984 231.744h262.976c17.664 0 32 14.336 32 32s-14.336 32-32 32h-288c-14.656 0-27.456-9.984-31.040-24.192l-64-256c-4.288-17.152 6.144-34.56 23.296-38.848zM776 576h-160c-17.664 0-32-14.336-32-32s14.336-32 32-32h160c17.664 0 32 14.336 32 32s-14.336 32-32 32zM744 448h-160c-17.664 0-32-14.336-32-32s14.336-32 32-32h160c17.664 0 32 14.336 32 32s-14.336 32-32 32z" />
<glyph unicode="&#xe905;" glyph-name="bus" d="M928 768h-640c-123.52 0-224-100.48-224-224v-256c0-17.664 14.336-32 32-32h33.6c-0.768-5.248-1.6-10.496-1.6-16 0-61.76 50.24-112 112-112s112 50.24 112 112c0 5.504-0.832 10.752-1.6 16h259.264c-0.832-5.248-1.664-10.496-1.664-16 0-61.76 50.24-112 112-112s112 50.24 112 112c0 5.504-0.832 10.752-1.6 16h97.6c17.664 0 32 14.336 32 32v448c0 17.664-14.336 32-32 32zM131.264 576h147.776l-16-64h-135.040v32c0 10.944 1.152 21.632 3.264 32zM240 192c-26.496 0-48 21.568-48 48s21.504 48 48 48 48-21.568 48-48-21.504-48-48-48zM720 192c-26.432 0-48 21.568-48 48s21.568 48 48 48 48-21.568 48-48-21.568-48-48-48zM896 320h-96c-0.512 0-0.96-0.256-1.472-0.32-20.288 19.968-47.936 32.32-78.528 32.32-30.4 0-57.92-12.288-78.144-32h-323.712c-20.224 19.712-47.744 32-78.144 32-30.592 0-58.24-12.352-78.528-32.32-0.512 0.064-0.96 0.32-1.472 0.32h-32v128h160c14.656 0 27.456 9.984 31.040 24.256l32 128c2.432 9.536 0.256 19.712-5.824 27.456s-15.36 12.288-25.216 12.288h-159.168c29.248 38.592 75.136 64 127.168 64h608v-384zM416 448h128c14.656 0 27.456 9.984 31.040 24.256l32 128c2.368 9.536 0.256 19.712-5.824 27.456-6.016 7.744-15.36 12.288-25.216 12.288h-128c-14.656 0-27.456-9.984-31.040-24.256l-32-128c-2.368-9.536-0.256-19.712 5.824-27.456s15.36-12.288 25.216-12.288zM473.024 576h62.016l-16-64h-62.016l16 64zM672 448h128c14.656 0 27.52 9.984 31.040 24.256l32 128c2.368 9.536 0.256 19.712-5.824 27.456-6.016 7.744-15.36 12.288-25.216 12.288h-128c-14.656 0-27.52-9.984-31.040-24.256l-32-128c-2.368-9.536-0.256-19.712 5.824-27.456 6.016-7.744 15.36-12.288 25.216-12.288zM729.024 576h62.016l-16-64h-62.016l16 64z" />
<glyph unicode="&#xe906;" glyph-name="heart" d="M512 64c-11.456 0.704-16.576 3.2-22.784 9.408l-350.72 318.848c-98.304 98.304-98.24 268.928-0.96 366.208 97.216 97.344 267.84 97.408 365.12 0.128l9.216-12.032c2.048 2.752 4.224 5.632 6.592 8.704 100.032 100.48 270.656 100.544 368 3.2 46.72-46.656 73.536-113.28 73.6-182.528 0-69.312-26.752-135.872-73.472-182.592l-351.808-319.936c-6.272-6.208-14.528-9.408-22.784-9.408zM321.6 768.576c-50.624 0-101.76-18.304-138.816-55.36-73.152-73.216-73.216-201.536-0.128-274.624l329.344-299.328 330.432 300.416c33.664 33.728 53.632 83.776 53.632 136.192-0.064 52.416-20.032 102.528-54.848 137.344-73.216 73.088-201.28 73.216-274.432 0.32 0.128-0.256-25.216-33.792-28.608-38.4-2.432-3.392-5.504-6.4-9.216-8.704-14.080-8.768-32.512-5.312-42.496 7.872l-32 42.368c-34.624 34.432-83.456 51.904-132.864 51.904z" />
<glyph unicode="&#xe907;" glyph-name="heart-solid" d="M886.464 758.464c-97.344 97.344-267.968 97.344-368-3.2-2.368-3.072-4.544-5.952-6.592-8.704l-9.216 12.032c-97.28 97.28-267.904 97.216-365.12-0.128-97.28-97.28-97.344-267.904 0.96-366.144l350.72-318.848c6.272-6.272 11.328-8.768 22.784-9.472 8.256 0 16.512 3.2 22.72 9.408l351.808 319.936c46.72 46.656 73.472 113.28 73.472 182.592 0 69.248-26.816 135.808-73.536 182.528z" />
<glyph unicode="&#xe908;" glyph-name="star-solid" d="M956.672 554.304c-7.936 24.448-28.672 41.984-54.144 45.632l-228.288 33.216-102.080 206.784c-22.72 46.208-97.536 46.208-120.32 0l-102.080-206.784-228.288-33.216c-25.472-3.712-46.208-21.184-54.144-45.632-7.936-24.512-1.472-50.816 16.96-68.8l165.184-161.024-38.976-227.328c-4.352-25.344 5.824-50.56 26.688-65.664 11.776-8.512 25.472-12.864 39.36-12.864 10.688 0 21.376 2.56 31.296 7.808l204.16 107.392 204.096-107.392c22.784-12.032 49.792-10.112 70.656 4.992s31.104 40.32 26.816 65.728l-39.040 227.328 165.248 161.024c18.368 17.984 24.832 44.288 16.896 68.8z" />
<glyph unicode="&#xe909;" glyph-name="star" d="M276.544 18.624c-13.824 0-27.584 4.352-39.36 12.864-20.864 15.104-31.040 40.32-26.688 65.664l38.976 227.328-165.184 161.024c-18.432 17.984-24.896 44.288-16.96 68.8 7.936 24.448 28.672 41.92 54.144 45.632l228.224 33.216 102.144 206.784c22.72 46.208 97.536 46.208 120.32 0l102.080-206.784 228.288-33.216c25.408-3.712 46.208-21.184 54.144-45.632s1.408-50.816-16.96-68.8l-165.184-161.024 39.040-227.328c4.288-25.408-5.952-50.624-26.816-65.728-20.8-15.104-47.808-17.088-70.656-4.992l-204.096 107.392-204.16-107.392c-9.92-5.248-20.672-7.808-31.296-7.808zM512 201.92c5.12 0 10.24-1.28 14.912-3.712l219.008-115.2-37.376 247.232c-1.728 10.432 1.664 20.992 9.28 28.352l177.28 172.672-246.656 40.896c-10.432 1.536-19.52 8.128-24.128 17.536l-109.568 221.952c-0.256 0.576-0.832 1.664-2.752 1.664l-112.32-223.616c-4.672-9.408-13.632-16-24.064-17.472l-244.928-35.584 175.488-177.984c7.552-7.36 10.944-17.92 9.216-28.288l-41.792-244.032 223.552 111.936c4.608 2.432 9.728 3.648 14.848 3.648z" />
<glyph unicode="&#xe90a;" glyph-name="save" d="M867.904 713.344l-90.496 90.496c-17.92 17.92-42.688 28.16-67.904 28.16h-485.504c-52.928 0-96-43.072-96-96v-576c0-52.928 43.072-96 96-96h576c52.928 0 96 43.072 96 96v485.504c0 25.6-9.984 49.728-28.096 67.84zM320 768h320v-112c0-17.664-14.4-32-32-32h-256c-17.664 0-32 14.336-32 32v112zM704 128h-384v224c0 17.6 14.336 32 32 32h320c17.6 0 32-14.4 32-32v-224zM832 160c0-17.6-14.4-32-32-32h-32v224c0 52.928-43.072 96-96 96h-320c-52.928 0-96-43.072-96-96v-224h-32c-17.664 0-32 14.4-32 32v576c0 17.664 14.336 32 32 32h32v-112c0-52.928 43.072-96 96-96h256c52.928 0 96 43.072 96 96v112h5.504c8.448 0 16.704-3.392 22.656-9.344l90.496-90.496c5.888-6.016 9.344-14.272 9.344-22.656v-485.504z" />
<glyph unicode="&#xe90b;" glyph-name="warning-circle" d="M512 385.472c-17.664 0-32 14.336-32 32v192c0 17.664 14.336 32 32 32s32-14.336 32-32v-192c0-17.664-14.336-32-32-32zM512 254.72c-8.32 0-16.64 3.2-22.4 9.536-3.2 2.56-5.76 6.464-7.040 10.24-1.92 3.904-2.56 7.68-2.56 12.16 0 3.84 0.64 8.32 2.56 12.096 1.28 3.904 3.84 7.68 7.040 10.24 11.52 12.16 33.28 12.16 44.8 0 3.2-2.56 5.76-6.4 7.040-10.24 1.92-3.84 2.56-8.32 2.56-12.096 0-4.48-0.64-8.32-2.56-12.16-1.28-3.84-3.84-7.68-7.040-10.24-5.76-6.336-14.080-9.536-22.4-9.536zM512 64c-211.776 0-384 172.224-384 384s172.224 384 384 384 384-172.224 384-384-172.224-384-384-384zM512 768c-176.448 0-320-143.552-320-320s143.552-320 320-320 320 143.552 320 320-143.552 320-320 320z" />
<glyph unicode="&#xe90c;" glyph-name="question-circle" d="M512 64c-211.776 0-384 172.224-384 384s172.224 384 384 384 384-172.224 384-384-172.224-384-384-384zM512 768c-176.448 0-320-143.552-320-320s143.552-320 320-320 320 143.552 320 320-143.552 320-320 320zM512 320c-17.664 0-32 14.336-32 32v32c0 12.224 6.912 23.36 17.92 28.736 0.128 0.064 43.84 21.504 62.016 32.064 29.696 17.152 48.064 49.024 48.064 83.2 0 52.928-43.072 96-96 96s-96-43.072-96-96c0-17.664-14.336-32-32-32s-32 14.336-32 32c0 88.192 71.808 160 160 160 88.256 0 160-71.808 160-160 0-56.896-30.656-110.016-80-138.56-11.52-6.72-32.768-17.536-48-25.216v-12.224c0-17.664-14.336-32-32-32zM512 193.92c-8.32 0-16.64 3.2-22.4 9.6-6.4 5.76-9.6 14.080-9.6 22.4s3.2 16.64 9.6 23.040c2.56 2.56 6.4 5.056 10.24 6.4 11.52 5.12 26.24 2.56 34.56-6.4 6.4-6.464 9.6-14.72 9.6-23.040 0-3.904-0.64-8.32-2.56-12.16-1.28-3.84-3.84-6.976-7.040-10.176-5.76-6.464-14.080-9.664-22.4-9.664z" />
<glyph unicode="&#xe90d;" glyph-name="warning-triangle" d="M896 48h-768c-11.2 0-21.568 5.888-27.392 15.424-5.76 9.536-6.144 21.44-1.024 31.36l384 736c11.072 21.12 45.696 21.12 56.768 0l384-736c5.184-9.92 4.8-21.824-1.024-31.36s-16.128-15.424-27.328-15.424zM180.8 112h662.4l-331.2 634.816-331.2-634.816zM512 304c-17.664 0-32 14.336-32 32v192c0 17.664 14.336 32 32 32s32-14.336 32-32v-192c0-17.664-14.336-32-32-32zM512 173.44c-8.32 0-16.64 3.2-22.4 9.024-3.2 3.2-5.76 6.4-7.040 10.176-1.92 3.84-2.56 8.384-2.56 12.16 0 4.48 0.64 8.32 2.56 12.8 1.28 3.84 3.84 6.976 7.040 10.24 2.56 2.56 6.4 5.12 10.24 6.4 11.52 5.12 25.6 2.56 34.56-6.4 3.2-3.2 5.76-6.4 7.040-10.24 1.92-4.48 2.56-8.32 2.56-12.8 0-3.84-0.64-8.32-2.56-12.16-1.28-3.84-3.84-7.040-7.040-10.176-2.56-3.264-6.4-5.12-10.24-7.040-3.84-1.344-7.68-1.984-12.16-1.984z" />
<glyph unicode="&#xe90e;" glyph-name="arrow-up" d="M520.576 766.336c-5.248 1.536-10.624 1.92-15.936 0.704-0.512-0.128-1.024 0-1.536-0.192-4.224-1.152-8.256-3.072-11.84-6.080-1.024-0.832-1.472-2.048-2.368-2.944-0.512-0.512-1.28-0.576-1.728-1.088l-160-191.936c-11.2-13.504-9.536-33.792 4.096-45.12 13.568-11.328 33.728-9.472 45.12 4.032l103.424 124.032v-487.616c0-17.664 14.336-32 32-32s32 14.336 32 32v487.68l103.424-124.032c11.328-13.568 31.488-15.424 45.056-4.032 7.552 6.336 11.52 15.424 11.52 24.576 0 7.232-2.432 14.528-7.424 20.48l-160 191.936c-3.52 4.16-7.936 6.784-12.608 8.704-0.448 0.192-0.64 0.64-1.088 0.832-0.704 0.256-1.408-0.128-2.112 0.064z" />
<glyph unicode="&#xe90f;" glyph-name="arrow-left" d="M193.408 456.768c-1.536-5.248-1.92-10.624-0.704-15.936 0.128-0.512 0-1.024 0.192-1.536 1.152-4.224 3.136-8.256 6.080-11.776 0.832-1.024 2.048-1.472 2.944-2.368 0.512-0.512 0.576-1.28 1.088-1.728l191.936-160c13.504-11.2 33.728-9.536 45.056 4.096 11.328 13.568 9.472 33.728-4.032 45.12l-124.032 103.36h487.616c17.664 0 32 14.336 32 32s-14.336 32-32 32h-487.616l124.032 103.424c13.568 11.328 15.424 31.488 4.096 45.056-6.336 7.552-15.424 11.52-24.576 11.52-7.232 0-14.528-2.432-20.48-7.424l-191.936-160c-4.16-3.456-6.848-7.872-8.704-12.608-0.192-0.448-0.704-0.64-0.896-1.088-0.256-0.704 0.128-1.408-0.064-2.112z" />
<glyph unicode="&#xe910;" glyph-name="arrow-down" d="M502.976 129.6c5.248-1.536 10.624-1.92 15.936-0.704 0.512 0.128 1.024 0 1.536 0.192 4.224 1.152 8.256 3.136 11.776 6.080 1.024 0.832 1.472 2.048 2.368 2.944 0.512 0.512 1.28 0.576 1.728 1.088l160 191.936c11.2 13.504 9.536 33.728-4.096 45.056-13.568 11.328-33.728 9.472-45.12-4.032l-103.424-124.032v487.616c0 17.664-14.336 32-32 32s-32-14.336-32-32v-487.616l-103.296 124.096c-11.328 13.568-31.552 15.36-45.12 4.032-7.552-6.336-11.52-15.424-11.52-24.576 0-7.232 2.432-14.528 7.424-20.48l160-191.936c3.456-4.16 7.872-6.784 12.608-8.704 0.448-0.192 0.64-0.704 1.088-0.832 0.704-0.256 1.408 0.064 2.112-0.128z" />
<glyph unicode="&#xe911;" glyph-name="arrow-right" d="M830.144 439.232c1.536 5.248 1.92 10.624 0.704 15.936-0.128 0.512 0 1.024-0.192 1.536-1.152 4.224-3.136 8.256-6.080 11.776-0.832 1.024-2.048 1.472-2.944 2.368-0.512 0.512-0.576 1.28-1.088 1.728l-191.936 160c-13.568 11.2-33.792 9.536-45.12-4.096-11.328-13.568-9.472-33.728 4.096-45.056l124.032-103.424h-487.616c-17.664 0-32-14.336-32-32s14.336-32 32-32h487.616l-124.032-103.424c-13.568-11.328-15.424-31.488-4.032-45.056 6.272-7.552 15.36-11.52 24.512-11.52 7.232 0 14.528 2.432 20.48 7.424l191.936 160c4.16 3.456 6.784 7.872 8.704 12.608 0.192 0.448 0.704 0.64 0.832 1.088 0.32 0.704-0.064 1.408 0.128 2.112z" />
<glyph unicode="&#xe912;" glyph-name="chevron-up" d="M489.344 582.656l-224-224c-12.48-12.48-12.48-32.768 0-45.248s32.768-12.48 45.248 0l201.408 201.344 201.344-201.344c12.48-12.48 32.768-12.48 45.248 0 6.272 6.208 9.408 14.4 9.408 22.592s-3.136 16.384-9.344 22.656l-224 224c-12.544 12.48-32.768 12.48-45.312 0z" />
<glyph unicode="&#xe913;" glyph-name="chevron-left" d="M377.344 425.344l224-224c12.48-12.48 32.768-12.48 45.248 0s12.48 32.768 0 45.248l-201.344 201.408 201.344 201.344c12.48 12.48 12.48 32.768 0 45.248-6.208 6.272-14.4 9.408-22.592 9.408s-16.384-3.136-22.656-9.344l-224-224c-12.48-12.544-12.48-32.768 0-45.312z" />
<glyph unicode="&#xe914;" glyph-name="chevron-down" d="M534.656 313.344l224 224c12.48 12.48 12.48 32.768 0 45.248s-32.768 12.48-45.248 0l-201.408-201.344-201.344 201.408c-12.48 12.48-32.768 12.48-45.248 0-6.272-6.272-9.408-14.464-9.408-22.656s3.136-16.384 9.344-22.656l224-224c12.544-12.48 32.768-12.48 45.312 0z" />
<glyph unicode="&#xe915;" glyph-name="chevron-right" d="M646.656 470.656l-224 224c-12.48 12.48-32.768 12.48-45.248 0s-12.48-32.768 0-45.248l201.344-201.408-201.344-201.344c-12.48-12.48-12.48-32.768 0-45.248 6.208-6.272 14.4-9.408 22.592-9.408s16.384 3.136 22.656 9.344l224 224c12.48 12.544 12.48 32.768 0 45.312z" />
<glyph unicode="&#xe916;" glyph-name="caret-right" d="M402.496 636.992c-11.264-5.312-18.432-16.512-18.432-28.992v-320c0-12.416 7.168-23.744 18.432-28.992 11.264-5.312 24.512-3.584 34.048 4.416l191.936 160c7.296 6.080 11.456 15.104 11.456 24.576s-4.16 18.496-11.456 24.576l-191.936 160c-9.536 7.936-22.784 9.664-34.048 4.416z" />
<glyph unicode="&#xe917;" glyph-name="caret-up" d="M323.008 338.496c5.312-11.264 16.576-18.432 28.992-18.432h320c12.416 0 23.744 7.168 28.992 18.432 5.312 11.264 3.584 24.512-4.416 34.048l-160 191.936c-6.080 7.296-15.104 11.52-24.576 11.52s-18.496-4.224-24.576-11.52l-160-191.936c-7.936-9.536-9.664-22.784-4.416-34.048z" />
<glyph unicode="&#xe918;" glyph-name="caret-left" d="M621.504 259.008c11.264 5.312 18.432 16.576 18.432 28.992v320c0 12.416-7.168 23.744-18.432 28.992s-24.512 3.584-34.048-4.416l-191.936-160c-7.296-6.080-11.456-15.040-11.456-24.576s4.16-18.496 11.52-24.576l191.936-160c9.472-7.936 22.72-9.664 33.984-4.416z" />
<glyph unicode="&#xe919;" glyph-name="caret-down" d="M700.992 557.504c-5.312 11.264-16.576 18.496-28.992 18.496h-320c-12.416 0-23.744-7.232-28.992-18.496-5.248-11.2-3.52-24.512 4.416-34.048l160-191.936c6.080-7.296 15.104-11.456 24.576-11.456s18.496 4.16 24.576 11.52l160 191.936c7.936 9.472 9.664 22.784 4.416 33.984z" />
<glyph unicode="&#xe91a;" glyph-name="unlock" d="M736 512h-32v224c0 55.36-40.128 160-192 160s-192-104.64-192-160v-64c0-17.664 14.336-32 32-32s32 14.336 32 32v64c0 3.904 1.472 96 128 96 122.688 0 127.808-86.464 128-96v-224h-352c-38.592 0-96-25.536-96-96v-320c0-38.592 25.536-96 96-96h448c38.592 0 96 25.536 96 96v320c0 38.592-25.536 96-96 96zM768 96c0-25.728-17.6-31.616-32-32h-448c-25.792 0-31.616 17.6-32 32v320c0 25.664 17.472 31.616 32.256 32h447.744c25.728 0 31.616-17.6 32-32v-320zM512 384c-52.928 0-96-43.072-96-96 0-41.664 26.816-76.864 64-90.112v-37.888c0-17.664 14.336-32 32-32s32 14.336 32 32v37.888c37.184 13.248 64 48.448 64 90.112 0 52.928-43.072 96-96 96zM512 256c-17.664 0-32 14.4-32 32s14.336 32 32 32 32-14.4 32-32-14.336-32-32-32z" />
<glyph unicode="&#xe91b;" glyph-name="add" d="M800 832h-448c-52.928 0-96-43.072-96-96v-448c0-52.928 43.072-96 96-96h448c52.928 0 96 43.072 96 96v448c0 52.928-43.072 96-96 96zM832 288c0-17.6-14.4-32-32-32h-448c-17.664 0-32 14.4-32 32v448c0 17.664 14.336 32 32 32h448c17.6 0 32-14.336 32-32v-448zM672 128h-448c-17.664 0-32 14.4-32 32v448c0 17.664-14.336 32-32 32s-32-14.336-32-32v-448c0-52.928 43.072-96 96-96h448c17.664 0 32 14.336 32 32s-14.336 32-32 32zM736 544h-128v128c0 17.664-14.336 32-32 32s-32-14.336-32-32v-128h-128c-17.664 0-32-14.336-32-32s14.336-32 32-32h128v-128c0-17.664 14.336-32 32-32s32 14.336 32 32v128h128c17.664 0 32 14.336 32 32s-14.336 32-32 32z" />
<glyph unicode="&#xe91c;" glyph-name="file-interactive" d="M800 128c-17.664 0-32-14.336-32-32 0-17.6-14.4-32-32-32h-448c-17.664 0-32 14.4-32 32 0 17.664-14.336 32-32 32s-32-14.336-32-32c0-52.928 43.072-96 96-96h448c52.928 0 96 43.072 96 96 0 17.664-14.336 32-32 32zM831.168 708.16c-0.192 1.408-0.448 2.624-0.832 3.968-1.472 5.504-3.84 10.624-7.808 14.528l-159.872 159.872c-0.256 0.192-0.512 0.448-0.768 0.704v0c-0.064 0-0.064 0-0.064 0.064-2.944 2.688-6.208 4.8-9.664 6.208s-7.232 2.368-11.2 2.496c0 0 0 0-0.064 0 0 0 0 0-0.064 0-0.32 0-0.64 0.064-0.96 0h-351.872c-52.928 0-96-43.072-96-96v-192c0-17.664 14.336-32 32-32s32 14.336 32 32v192c0 17.664 14.336 32 32 32h320v-64c0-49.344 46.656-96 96-96h64v-64c0-17.664 14.336-32 32-32s32 14.336 32 32v96c0 1.472-0.64 2.752-0.832 4.16zM704 736c-14.4 0-32 17.664-32 32v18.752l50.752-50.752h-18.752zM230.72 193.856c3.008-1.216 6.144-1.856 9.408-1.856 3.456 0 6.656 0.64 9.536 1.856 2.88 1.344 5.504 3.008 7.744 5.056 2.24 2.112 4.032 4.608 5.312 7.616s1.92 6.144 1.92 9.344v238.848c0 3.456-0.64 6.656-1.92 9.536-1.344 2.944-3.072 5.44-5.312 7.616s-4.8 3.84-7.744 5.056c-2.88 1.216-6.080 1.792-9.536 1.792-3.264 0-6.4-0.576-9.408-1.792-2.944-1.216-5.504-2.88-7.68-5.056s-3.904-4.672-5.184-7.616c-1.28-2.88-1.92-6.080-1.92-9.536v-238.784c0-3.264 0.64-6.4 1.92-9.344 1.28-3.008 3.008-5.504 5.184-7.616s4.736-3.776 7.68-5.12zM333.312 193.856c3.008-1.216 6.144-1.856 9.408-1.856 3.456 0 6.656 0.64 9.536 1.856 2.88 1.344 5.504 3.008 7.744 5.056 2.24 2.112 4.032 4.608 5.312 7.616s1.92 6.144 1.92 9.344v173.44l156.8-187.904c2.432-3.008 4.928-5.312 7.616-6.848s5.76-2.432 9.344-2.56h1.344c3.008 0 5.632 0.448 8 1.344 2.304 0.896 4.352 2.112 6.144 3.776 2.816 2.112 5.056 4.8 6.72 8.064 1.6 3.328 2.496 6.848 2.496 10.752v238.784c0 3.456-0.64 6.656-1.792 9.536s-2.944 5.44-5.12 7.552-4.608 3.712-7.488 4.992-5.952 1.92-9.408 1.92-6.656-0.64-9.6-1.92c-3.008-1.28-5.632-2.944-7.872-4.992-2.24-2.112-4.032-4.608-5.376-7.552s-1.984-6.080-1.984-9.536v-171.392l-155.008 186.176c-2.56 3.008-5.504 5.312-8.832 6.848-3.392 1.6-6.848 2.368-10.496 2.368-4.032 0-7.552-0.768-10.496-2.24s-5.44-3.52-7.36-6.016c-4.224-4.544-6.272-9.984-6.272-16.384v-238.144c0-3.264 0.64-6.4 1.92-9.344 1.28-3.008 3.008-5.504 5.184-7.616 2.112-2.112 4.672-3.776 7.616-5.12zM691.392 206.592c1.28-3.008 3.008-5.504 5.184-7.616 2.176-2.048 4.672-3.776 7.552-5.056 3.008-1.28 6.080-1.92 9.344-1.92 3.392 0 6.656 0.64 9.6 1.856 3.008 1.344 5.568 3.008 7.808 5.056 2.24 2.112 4.032 4.608 5.248 7.616 1.344 3.008 1.92 6.144 1.92 9.344v214.272h67.008c3.392 0 6.592 0.64 9.472 1.92s5.44 2.944 7.616 5.12c2.112 2.176 3.904 4.736 5.12 7.616s1.856 6.080 1.856 9.536-0.64 6.592-1.856 9.472c-1.28 2.944-3.008 5.504-5.12 7.744-2.176 2.24-4.736 3.968-7.616 5.248-2.944 1.28-6.144 1.92-9.472 1.92h-182.528c-3.264 0-6.4-0.64-9.344-1.92s-5.632-3.008-7.808-5.12c-2.112-2.176-3.904-4.672-5.12-7.616-1.28-2.944-1.856-6.080-1.856-9.536 0-3.264 0.64-6.464 1.856-9.408 1.28-3.008 3.008-5.568 5.12-7.872 2.176-2.24 4.736-3.968 7.744-5.248s6.144-1.92 9.344-1.92h67.008v-214.208c0-3.2 0.64-6.336 1.92-9.28z" />
<glyph unicode="&#xe91d;" glyph-name="file-3d" d="M800 128c-17.664 0-32-14.336-32-32 0-17.6-14.4-32-32-32h-448c-17.664 0-32 14.4-32 32 0 17.664-14.336 32-32 32s-32-14.336-32-32c0-52.928 43.072-96 96-96h448c52.928 0 96 43.072 96 96 0 17.664-14.336 32-32 32zM831.168 708.16c-0.192 1.408-0.448 2.624-0.832 3.968-1.472 5.504-3.84 10.624-7.808 14.528l-159.872 159.872c-0.256 0.192-0.512 0.448-0.768 0.704v0c-0.064 0-0.064 0-0.064 0.064-2.944 2.688-6.208 4.8-9.664 6.208s-7.232 2.368-11.2 2.496c0 0 0 0-0.064 0 0 0 0 0-0.064 0-0.32 0-0.64 0.064-0.96 0h-351.872c-52.928 0-96-43.072-96-96v-192c0-17.664 14.336-32 32-32s32 14.336 32 32v192c0 17.664 14.336 32 32 32h320v-64c0-49.344 46.656-96 96-96h64v-64c0-17.664 14.336-32 32-32s32 14.336 32 32v96c0 1.472-0.64 2.752-0.832 4.16zM704 736c-14.4 0-32 17.664-32 32v18.752l50.752-50.752h-18.752zM398.464 251.52c-2.88-3.264-6.336-5.824-10.304-7.744s-8.192-3.008-12.672-3.136h-77.248c-7.040 0-12.992-2.176-17.792-6.528-4.864-4.352-7.296-9.984-7.296-17.088 0-3.456 0.64-6.656 1.984-9.664 1.344-3.072 3.136-5.76 5.376-8s4.928-4.032 8-5.376c3.008-1.28 6.272-1.984 9.728-1.984h75.456c11.328 0 22.080 2.176 32.128 6.528 10.048 4.288 18.816 10.24 26.304 17.792 7.488 7.488 13.376 16.384 17.792 26.56 4.416 10.112 6.592 20.928 6.592 32.448 0 11.84-2.176 22.848-6.592 33.28s-10.432 19.456-18.048 27.072c7.616 7.552 13.632 16.512 18.048 26.752s6.592 21.248 6.592 33.024c0 11.648-2.176 22.528-6.592 32.704s-10.304 18.88-17.792 26.368-16.192 13.376-26.304 17.664c-10.048 4.352-20.8 6.528-32.128 6.528h-75.456c-3.456 0-6.656-0.64-9.728-1.984s-5.76-3.2-8-5.44c-2.24-2.176-4.032-4.864-5.376-7.936s-1.984-6.272-1.984-9.728c0-6.976 2.432-12.672 7.296-17.024 4.8-4.352 10.752-6.464 17.792-6.464h75.968c4.48-0.128 8.704-1.216 12.736-3.136s7.616-4.416 10.688-7.488 5.504-6.592 7.36-10.624 2.816-8.384 2.816-12.992-0.896-9.152-2.624-13.44c-1.728-4.416-4.096-8.128-7.168-11.328-3.072-3.264-6.592-5.824-10.624-7.744-4.032-1.984-8.32-2.944-12.8-2.944h-45.248c-3.456 0-6.656-0.64-9.728-1.92s-5.76-3.008-7.936-5.248c-2.304-2.304-4.032-4.864-5.376-7.872s-2.048-6.208-2.048-9.6 0.896-6.656 2.624-9.536c1.728-2.88 3.968-5.376 6.72-7.552s5.824-3.904 9.28-5.184c3.456-1.28 6.848-1.856 10.304-1.856h41.216c4.608 0 9.024-1.024 13.12-3.072 4.096-1.984 7.68-4.608 10.688-7.936 2.944-3.264 5.376-7.040 7.168-11.456 1.792-4.288 2.688-8.832 2.688-13.44s-0.896-9.024-2.56-13.184c-1.792-4.224-4.16-7.936-7.040-11.072zM513.024 193.856c3.008-1.216 6.080-1.856 9.408-1.856h78.592c19.776 0 38.464 3.776 56 11.2 17.6 7.488 33.152 17.664 46.4 30.656 13.312 12.992 23.872 28.16 31.616 45.504s11.648 35.84 11.648 55.488c0 13.184-1.728 25.856-5.248 38.144s-8.512 23.68-14.848 34.24c-6.464 10.624-14.144 20.288-23.104 29.12s-18.752 16.384-29.504 22.656c-10.752 6.272-22.336 11.136-34.624 14.592-12.48 3.392-25.152 5.12-38.336 5.12h-78.592c-3.264 0-6.4-0.576-9.408-1.792s-5.568-2.88-7.744-5.056c-2.176-2.176-3.904-4.672-5.184-7.616-1.28-2.88-1.92-6.080-1.92-9.536v-238.784c0-3.264 0.64-6.4 1.92-9.344 1.28-3.008 3.008-5.504 5.184-7.616s4.736-3.776 7.744-5.12zM546.816 430.144h55.296c13.376 0 25.728-2.688 37.376-8 11.52-5.312 21.696-12.352 30.464-21.184 8.704-8.832 15.552-19.008 20.544-30.528s7.488-23.488 7.488-36.032c0-12.416-2.496-24.32-7.488-35.648-4.992-11.392-11.904-21.376-20.544-29.952-8.768-8.576-18.944-15.424-30.464-20.608-11.648-5.12-24-7.68-37.376-7.68h-55.296v189.632z" />
<glyph unicode="&#xe91e;" glyph-name="file-ppt" d="M800 128c-17.664 0-32-14.336-32-32 0-17.6-14.4-32-32-32h-448c-17.664 0-32 14.4-32 32 0 17.664-14.336 32-32 32s-32-14.336-32-32c0-52.928 43.072-96 96-96h448c52.928 0 96 43.072 96 96 0 17.664-14.336 32-32 32zM224 576c17.664 0 32 14.336 32 32v192c0 17.664 14.336 32 32 32h320v-64c0-49.344 46.656-96 96-96h64v-64c0-17.664 14.336-32 32-32s32 14.336 32 32v96c0 1.472-0.64 2.752-0.832 4.16s-0.448 2.624-0.832 3.968c-1.472 5.504-3.84 10.624-7.808 14.528l-159.872 159.872c-0.256 0.192-0.512 0.448-0.768 0.704v0c-0.064 0-0.064 0-0.064 0.064-2.944 2.688-6.208 4.8-9.664 6.208s-7.232 2.368-11.2 2.496c0 0 0 0-0.064 0 0 0 0 0-0.064 0-0.32 0-0.64 0.064-0.96 0h-351.872c-52.928 0-96-43.072-96-96v-192c0-17.664 14.336-32 32-32zM672 786.752l50.752-50.752h-18.752c-14.4 0-32 17.664-32 32v18.752zM207.808 198.912c2.24 2.112 4.032 4.608 5.248 7.616s1.92 6.144 1.92 9.344v49.536h57.536c14.912 0 28.928 2.752 41.984 8.256 13.056 5.568 24.448 13.12 34.112 22.72 9.728 9.6 17.344 20.864 22.976 33.728 5.568 12.8 8.384 26.624 8.384 41.344 0 14.784-2.816 28.736-8.384 41.792-5.504 13.248-13.12 24.576-22.912 34.24-9.664 9.6-21.056 17.28-33.984 22.848-12.992 5.568-27.008 8.384-41.92 8.384h-82.176c-3.328 0-6.464-0.64-9.408-1.92-3.008-1.28-5.632-3.008-7.744-5.12-2.176-2.176-3.904-4.8-5.184-7.744-1.28-3.008-1.856-6.208-1.856-9.6v-238.4c0-3.264 0.64-6.4 1.856-9.344 1.344-3.008 3.008-5.504 5.184-7.616 2.112-2.048 4.736-3.776 7.68-5.056 3.008-1.28 6.144-1.92 9.472-1.92 3.456 0 6.656 0.64 9.472 1.856 2.944 1.344 5.504 3.008 7.744 5.056zM214.976 430.144h58.432c8.064 0 15.616-1.6 22.656-4.864 6.976-3.2 13.12-7.552 18.368-12.992s9.408-11.648 12.416-18.688c3.072-6.976 4.544-14.336 4.544-21.952s-1.472-14.912-4.416-21.824c-2.944-6.976-7.104-13.056-12.288-18.368-5.248-5.312-11.456-9.536-18.496-12.608-7.104-3.2-14.656-4.736-22.72-4.736h-58.496v116.032zM566.656 470.336c-12.992 5.568-26.944 8.384-41.92 8.384h-82.176c-3.328 0-6.464-0.64-9.408-1.92s-5.568-3.008-7.744-5.12c-2.176-2.176-3.84-4.8-5.184-7.744-1.28-3.008-1.856-6.208-1.856-9.6v-238.4c0-3.264 0.64-6.4 1.856-9.344 1.344-3.008 3.008-5.504 5.184-7.616 2.112-2.048 4.736-3.776 7.68-5.056 3.008-1.28 6.144-1.92 9.472-1.92 3.456 0 6.656 0.64 9.472 1.856 2.944 1.344 5.504 3.008 7.744 5.056 2.24 2.112 4.032 4.608 5.248 7.616s1.92 6.144 1.92 9.344v49.536h57.536c14.912 0 28.928 2.752 41.984 8.256 13.056 5.568 24.448 13.12 34.112 22.72 9.728 9.6 17.344 20.864 22.976 33.728 5.568 12.8 8.384 26.624 8.384 41.344 0 14.784-2.816 28.736-8.384 41.792-5.504 13.248-13.12 24.576-22.848 34.24-9.728 9.6-21.056 17.216-34.048 22.848zM579.008 349.824c-3.008-6.976-7.104-13.056-12.352-18.368s-11.456-9.536-18.496-12.608c-7.104-3.2-14.656-4.736-22.72-4.736h-58.432v116.032h58.432c8.064 0 15.616-1.6 22.656-4.864 6.976-3.2 13.12-7.552 18.368-12.992s9.344-11.648 12.416-18.688c3.072-6.976 4.544-14.336 4.544-21.952s-1.472-14.912-4.416-21.824zM876.992 463.808c-1.28 2.944-3.008 5.504-5.12 7.744-2.176 2.24-4.736 3.968-7.616 5.248-2.944 1.28-6.144 1.92-9.472 1.92h-182.592c-3.328 0-6.464-0.64-9.408-1.92s-5.568-3.008-7.744-5.184c-2.112-2.176-3.904-4.672-5.12-7.616-1.28-2.944-1.856-6.080-1.856-9.536 0-3.264 0.64-6.464 1.856-9.408 1.28-3.008 3.008-5.568 5.12-7.872 2.176-2.24 4.736-4.032 7.744-5.248 3.008-1.28 6.144-1.92 9.408-1.92h66.944v-214.208c0-3.264 0.64-6.4 1.92-9.344 1.28-3.008 2.944-5.504 5.12-7.616 2.176-2.048 4.672-3.776 7.616-5.056 2.944-1.152 6.016-1.792 9.344-1.792 3.456 0 6.656 0.64 9.6 1.856 3.008 1.344 5.568 3.008 7.808 5.056 2.24 2.112 4.032 4.608 5.248 7.616 1.344 3.008 1.92 6.144 1.92 9.344v214.272h67.008c3.392 0 6.592 0.64 9.472 1.92s5.44 2.944 7.616 5.12c2.112 2.176 3.904 4.736 5.12 7.616s1.92 6.080 1.92 9.536-0.576 6.592-1.856 9.472z" />
<glyph unicode="&#xe91f;" glyph-name="file-doc" d="M799.936 128c-17.664 0-32-14.336-32-32 0-17.6-14.4-32-32-32h-448c-17.6 0-31.936 14.4-31.936 32 0 17.664-14.336 32-32 32s-32-14.336-32-32c0-52.928 43.008-96 96-96h448c52.928 0 96 43.072 96 96-0.064 17.664-14.4 32-32.064 32zM224 576c17.664 0 32 14.336 32 32v192c0 17.664 14.336 32 32 32h320v-64c0-49.344 46.656-96 96-96h63.936l0.064-64c0-17.664 14.336-32 32-32s32 14.336 32 32l-0.064 96c0 1.472-0.64 2.752-0.832 4.16s-0.448 2.56-0.768 3.968c-1.472 5.504-3.84 10.624-7.808 14.592l-159.808 159.872c-0.256 0.256-0.512 0.512-0.768 0.768-0.064 0-0.064 0-0.064 0s0 0 0 0c-2.944 2.688-6.208 4.8-9.664 6.208-3.776 1.6-7.936 2.432-12.224 2.432h-352c-52.992 0-96-43.072-96-96v-192c0-17.664 14.272-32 32-32zM672 786.688l50.688-50.688h-18.688c-14.4 0-32 17.664-32 32v18.688zM253.824 203.2c17.6 7.488 33.088 17.664 46.4 30.656s23.808 28.16 31.616 45.504c7.744 17.344 11.648 35.84 11.648 55.488 0 13.184-1.792 25.856-5.312 38.144s-8.448 23.68-14.848 34.24c-6.464 10.624-14.144 20.352-23.168 29.12s-18.816 16.384-29.504 22.656c-10.752 6.272-22.336 11.136-34.624 14.528-12.352 3.456-25.088 5.184-38.208 5.184h-78.656c-3.264 0-6.4-0.576-9.408-1.792-2.944-1.216-5.568-2.88-7.68-5.056-2.176-2.176-3.904-4.672-5.184-7.616-1.28-2.88-1.92-6.080-1.92-9.536v-238.784c0-3.264 0.64-6.4 1.92-9.344 1.28-3.008 3.008-5.504 5.184-7.616 2.176-2.048 4.736-3.776 7.744-5.056 2.944-1.28 6.080-1.92 9.344-1.92h78.656c19.712 0 38.4 3.776 56 11.2zM143.616 430.144h55.296c13.312 0 25.728-2.688 37.312-8s21.696-12.352 30.464-21.184c8.704-8.832 15.616-19.008 20.608-30.528s7.488-23.488 7.488-36.032c0-12.416-2.496-24.32-7.488-35.648-4.992-11.392-11.904-21.376-20.608-29.952-8.768-8.576-18.88-15.424-30.464-20.608-11.584-5.12-24-7.68-37.312-7.68h-55.296v189.632zM570.752 469.312c-17.728 7.616-36.672 11.456-56.832 11.456-13.44 0-26.368-1.792-38.72-5.312-12.48-3.456-24-8.384-34.752-14.656s-20.544-13.888-29.376-22.72-16.384-18.752-22.592-29.568c-6.272-10.88-11.136-22.464-14.592-34.88-3.392-12.352-5.12-25.28-5.12-38.784 0-20.096 3.776-38.976 11.328-56.64s17.856-33.088 30.912-46.272c13.056-13.248 28.416-23.616 46.144-31.232 17.664-7.616 36.608-11.456 56.768-11.456 13.44 0 26.368 1.664 38.848 5.12s24.128 8.384 34.88 14.656c10.752 6.4 20.608 14.016 29.504 22.848 9.024 8.896 16.64 18.688 22.848 29.44s11.2 22.336 14.656 34.752c3.52 12.352 5.248 25.344 5.248 38.656 0 20.16-3.84 39.104-11.456 56.832s-17.984 33.152-31.232 46.4c-13.184 13.312-28.672 23.744-46.464 31.36zM603.776 296.832c-5.12-11.776-12.032-22.080-20.736-30.72-8.704-8.768-19.008-15.616-30.912-20.608s-24.512-7.488-37.952-7.488-26.048 2.496-37.76 7.488-21.952 11.904-30.656 20.608c-8.704 8.704-15.68 19.008-20.736 30.72-5.056 11.84-7.616 24.512-7.616 38.080 0 13.504 2.56 26.112 7.616 37.888 4.992 11.776 11.968 22.080 20.672 30.912 8.768 8.768 18.944 15.744 30.656 20.8 11.712 5.12 24.32 7.616 37.76 7.616s26.112-2.56 37.952-7.616c11.904-5.056 22.208-12.032 30.912-20.8 8.768-8.832 15.68-19.136 20.8-30.976 5.056-11.776 7.616-24.384 7.616-37.888s-2.56-26.24-7.616-38.016zM933.632 266.368c-2.176 2.048-4.8 3.712-7.808 4.8-2.944 1.152-5.952 1.664-8.96 1.664-3.328 0-6.464-0.576-9.344-1.664-3.008-1.152-5.632-2.816-7.872-5.056-9.856-9.536-20.48-16.704-31.808-21.376s-23.936-7.040-37.632-7.040c-13.568 0.128-26.24 2.88-37.952 8.192-11.776 5.312-21.888 12.352-30.528 21.248-8.64 8.96-15.296 19.2-20.096 30.912-4.864 11.776-7.296 24.064-7.296 37.056 0 13.632 2.56 26.24 7.68 38.144 5.184 11.776 12.096 22.016 20.864 30.784 8.768 8.704 18.944 15.616 30.656 20.608s24.192 7.488 37.312 7.488c12.608 0 24.96-2.368 36.8-7.040 11.904-4.672 22.656-11.904 32.384-21.568 2.24-2.24 4.8-3.968 7.68-5.056 2.944-1.152 6.016-1.664 9.152-1.664s6.272 0.576 9.28 1.792c3.136 1.216 5.824 2.944 8.256 5.376 4.736 4.8 7.104 10.432 7.104 16.896s-2.368 12.096-7.104 16.832c-14.528 14.336-30.656 25.088-48.448 32.256-17.728 7.168-36.032 10.752-54.848 10.752-14.080 0-27.456-1.856-40.064-5.504-12.736-3.648-24.448-8.768-35.2-15.36s-20.416-14.4-29.12-23.552c-8.704-9.088-16.064-19.008-22.080-29.76-6.080-10.752-10.752-22.208-14.016-34.368-3.264-12.224-4.928-24.768-4.928-37.568 0-13.312 1.664-26.112 5.184-38.528 3.392-12.416 8.256-24.064 14.528-34.88 6.336-10.816 13.888-20.672 22.656-29.568 8.896-8.896 18.624-16.448 29.248-22.72 10.688-6.272 22.208-11.136 34.496-14.656 12.352-3.52 25.088-5.312 38.208-5.312 19.136 0 37.568 3.584 55.424 10.688 17.856 7.040 33.984 17.856 48.512 32.384 2.24 2.176 4.032 4.8 5.12 7.808 1.28 3.008 1.856 6.080 1.856 9.216s-0.64 6.208-1.856 9.216c-1.216 3.072-3.008 5.76-5.44 8.128z" />
<glyph unicode="&#xe920;" glyph-name="file-pdf" d="M800 128c-17.664 0-32-14.336-32-32 0-17.6-14.4-32-32-32h-448c-17.664 0-32 14.4-32 32 0 17.664-14.336 32-32 32s-32-14.336-32-32c0-52.928 43.072-96 96-96h448c52.928 0 96 43.072 96 96 0 17.664-14.336 32-32 32zM224 576c17.664 0 32 14.336 32 32v192c0 17.664 14.336 32 32 32h320v-64c0-49.344 46.656-96 96-96h64v-64c0-17.664 14.336-32 32-32s32 14.336 32 32v96c0 1.472-0.64 2.752-0.832 4.16s-0.448 2.624-0.832 3.968c-1.472 5.504-3.84 10.624-7.808 14.528l-159.872 159.872c-0.256 0.192-0.512 0.448-0.768 0.704v0c-0.064 0-0.064 0-0.064 0.064-2.944 2.688-6.208 4.8-9.664 6.208s-7.232 2.368-11.2 2.496c0 0 0 0-0.064 0 0 0 0 0-0.064 0-0.32 0-0.64 0.064-0.96 0h-351.872c-52.928 0-96-43.072-96-96v-192c0-17.664 14.336-32 32-32zM672 786.752l50.752-50.752h-18.752c-14.4 0-32 17.664-32 32v18.752zM201.856 206.592c1.28 3.008 1.92 6.144 1.92 9.344v49.536h57.536c14.912 0 28.928 2.752 41.984 8.256 13.056 5.568 24.448 13.12 34.176 22.72s17.344 20.864 22.976 33.728c5.568 12.8 8.384 26.624 8.384 41.344 0 14.784-2.816 28.736-8.384 41.792-5.568 13.184-13.248 24.512-22.976 34.176s-21.056 17.28-34.048 22.848c-12.928 5.568-26.944 8.384-41.856 8.384h-82.24c-3.264 0-6.4-0.64-9.408-1.92-2.944-1.28-5.568-3.008-7.68-5.12s-3.904-4.8-5.184-7.744c-1.28-3.008-1.92-6.208-1.92-9.6v-238.4c0-3.264 0.64-6.4 1.92-9.344 1.28-3.008 3.008-5.504 5.184-7.616 2.176-2.048 4.736-3.776 7.744-5.056 2.944-1.28 6.080-1.92 9.344-1.92 3.456 0 6.656 0.64 9.536 1.856 2.88 1.344 5.504 3.008 7.744 5.056 2.24 2.176 3.968 4.672 5.248 7.68zM203.776 430.144h58.496c8.064 0 15.616-1.6 22.656-4.864 6.976-3.2 13.12-7.552 18.368-12.992 5.184-5.44 9.28-11.648 12.352-18.688 3.072-6.976 4.608-14.336 4.608-21.952s-1.536-14.912-4.48-21.824c-3.008-6.976-7.104-13.056-12.288-18.368-5.248-5.312-11.456-9.6-18.496-12.672-7.104-3.2-14.656-4.736-22.72-4.736h-58.496v116.096zM612.352 436.352c-8.96 8.832-18.88 16.384-29.632 22.656-10.688 6.272-22.208 11.136-34.56 14.528-12.288 3.456-25.024 5.184-38.208 5.184h-78.592c-3.264 0-6.4-0.576-9.408-1.792s-5.568-2.88-7.744-5.056c-2.176-2.176-3.84-4.672-5.12-7.616-1.28-2.88-1.92-6.080-1.92-9.536v-238.784c0-3.264 0.64-6.4 1.92-9.344 1.28-3.008 3.008-5.504 5.184-7.616 2.176-2.048 4.736-3.776 7.744-5.056 2.944-1.28 6.016-1.92 9.344-1.92h78.656c19.712 0 38.4 3.776 56 11.2 17.664 7.488 33.088 17.664 46.4 30.656 13.248 12.992 23.744 28.16 31.552 45.504 7.744 17.344 11.712 35.84 11.712 55.488 0 13.184-1.792 25.856-5.312 38.144s-8.448 23.68-14.848 34.24c-6.528 10.624-14.208 20.352-23.168 29.12zM599.488 298.88c-4.992-11.392-11.904-21.376-20.608-29.952s-18.88-15.424-30.464-20.608c-11.584-5.12-24-7.68-37.312-7.68h-55.296v189.504h55.296c13.312 0 25.728-2.688 37.312-8s21.696-12.352 30.464-21.12 15.616-19.008 20.608-30.528 7.488-23.488 7.488-36.032c0-12.416-2.496-24.256-7.488-35.584zM889.984 463.936c-1.28 2.944-2.944 5.568-4.992 7.744-2.112 2.176-4.608 3.904-7.488 5.184-2.944 1.28-6.144 1.92-9.536 1.92h-150.336c-4.48 0-8.192-0.768-11.2-2.24s-5.44-3.328-7.36-5.568-3.392-4.864-4.352-7.616c-0.896-2.752-1.344-5.376-1.344-7.936v-239.488c0-3.264 0.704-6.4 1.92-9.344s3.008-5.504 5.12-7.616c2.112-2.048 4.736-3.776 7.616-5.056 2.944-1.28 6.144-1.92 9.6-1.92s6.656 0.64 9.472 1.792c2.944 1.216 5.504 2.88 7.744 4.992 2.24 2.176 4.032 4.736 5.248 7.616 1.28 2.944 1.92 6.080 1.92 9.472v85.632h95.68c3.392 0 6.592 0.576 9.472 1.728 2.88 1.216 5.44 2.88 7.616 4.928 2.112 2.112 3.904 4.608 5.12 7.488 1.28 2.944 1.856 6.016 1.856 9.344 0 3.456-0.64 6.656-1.856 9.6s-3.008 5.632-5.12 7.936c-2.176 2.368-4.736 4.096-7.616 5.504-2.944 1.344-6.144 1.984-9.472 1.984h-95.68v80h125.888c3.456 0 6.656 0.64 9.536 1.92s5.376 2.944 7.488 5.12c2.048 2.176 3.776 4.736 4.992 7.744 1.28 2.944 1.856 6.144 1.856 9.408 0.128 3.52-0.512 6.72-1.792 9.728z" />
<glyph unicode="&#xe921;" glyph-name="file-video" d="M736 64h-448c-17.664 0-32-14.336-32-32s14.336-32 32-32h448c17.664 0 32 14.336 32 32s-14.336 32-32 32zM830.336 712.128c-1.472 5.504-3.84 10.624-7.808 14.528l-159.872 159.872c-0.256 0.192-0.512 0.448-0.768 0.704v0c-0.064 0-0.064 0-0.064 0.064-2.944 2.688-6.208 4.8-9.664 6.208s-7.232 2.368-11.2 2.496c0 0 0 0-0.064 0 0 0 0 0-0.064 0-0.32 0-0.64 0.064-0.96 0h-351.872c-52.928 0-96-43.072-96-96v-128c0-17.664 14.336-32 32-32s32 14.336 32 32v128c0 17.664 14.336 32 32 32h320v-64c0-49.344 46.656-96 96-96h64c0-17.664 14.336-32 32-32s32 14.336 32 32v32c0 1.472-0.64 2.752-0.832 4.16s-0.448 2.624-0.832 3.968zM704 736c-14.4 0-32 17.664-32 32v18.752l50.752-50.752h-18.752zM430.336 195.392l256 128c10.816 5.44 17.664 16.512 17.664 28.608s-6.848 23.168-17.664 28.608l-256 128c-9.92 4.928-21.696 4.48-31.104-1.408-9.472-5.824-15.232-16.128-15.232-27.2v-256c0-11.072 5.76-21.376 15.168-27.264 5.184-3.136 11.008-4.736 16.832-4.736 4.928 0 9.792 1.152 14.336 3.392zM448 428.224l152.448-76.224-152.448-76.224v152.448zM141.184 543.424c-16.192 6.848-35.136-0.704-41.984-17.024-23.36-55.232-35.2-113.92-35.2-174.4 0-60.544 11.84-119.168 35.2-174.464 5.184-12.16 17.024-19.52 29.44-19.52 4.16 0 8.384 0.832 12.48 2.56 16.256 6.848 23.872 25.6 17.024 41.92-19.968 47.296-30.144 97.536-30.144 149.504 0 51.904 10.176 102.144 30.144 149.44 6.912 16.32-0.704 35.072-16.96 41.984zM924.8 526.4c-6.912 16.32-25.6 23.872-41.984 17.024-16.256-6.848-23.872-25.664-17.024-41.92 20.096-47.36 30.208-97.6 30.208-149.504 0-51.968-10.112-102.208-30.144-149.44-6.912-16.32 0.704-35.072 16.96-41.92 4.096-1.728 8.32-2.56 12.48-2.56 12.416 0 24.32 7.296 29.44 19.52 23.36 55.232 35.264 113.856 35.264 174.4 0 60.48-11.904 119.168-35.2 174.4z" />
<glyph unicode="&#xe922;" glyph-name="flash" d="M416 0c-3.776 0-7.616 0.704-11.264 2.048-14.464 5.44-22.976 20.416-20.16 35.712l57.088 314.24h-121.664c-11.52 0-22.144 6.208-27.84 16.256-5.696 9.984-5.504 22.336 0.384 32.192l288 480c7.936 13.312 24.128 19.008 38.656 13.44 14.528-5.44 22.976-20.416 20.224-35.648l-57.088-314.24h121.664c11.52 0 22.208-6.208 27.904-16.192 5.632-10.048 5.504-22.336-0.448-32.256l-288-480c-5.952-9.856-16.512-15.552-27.456-15.552zM376.512 416h103.488c9.472 0 18.496-4.224 24.576-11.52s8.64-16.896 6.912-26.24l-32.576-179.264 168.576 281.024h-103.488c-9.472 0-18.496 4.224-24.576 11.52s-8.64 16.896-6.912 26.24l32.576 179.264-168.576-281.024zM806.208 121.792c-8.192 0-16.384 3.136-22.656 9.344-12.48 12.48-12.48 32.768 0 45.248 72.512 72.64 112.448 169.024 112.448 271.616s-39.936 198.976-112.448 271.552c-12.48 12.48-12.48 32.768 0 45.248s32.768 12.48 45.248 0c84.608-84.672 131.2-197.12 131.2-316.8 0-119.616-46.592-232.128-131.2-316.8-6.208-6.272-14.4-9.408-22.592-9.408zM217.856 121.792c-8.192 0-16.384 3.136-22.656 9.344-84.608 84.672-131.2 197.248-131.2 316.864 0 119.68 46.592 232.128 131.2 316.8 12.48 12.48 32.768 12.48 45.248 0s12.48-32.768 0-45.248c-72.512-72.576-112.448-168.96-112.448-271.552s39.936-198.976 112.448-271.552c12.48-12.48 12.48-32.768 0-45.248-6.208-6.272-14.4-9.408-22.592-9.408z" />
<glyph unicode="&#xe923;" glyph-name="ticket" d="M563.968 636.8l-19.584 19.584c-12.48 12.48-32.768 12.48-45.248 0s-12.48-32.768 0-45.248l19.584-19.584c6.208-6.208 14.4-9.344 22.592-9.344s16.384 3.136 22.656 9.344c12.48 12.544 12.48 32.768 0 45.248zM642.176 558.592l-19.584 19.584c-12.48 12.48-32.768 12.48-45.248 0s-12.48-32.768 0-45.248l19.584-19.584c6.272-6.272 14.464-9.344 22.656-9.344s16.384 3.136 22.656 9.344c12.416 12.48 12.416 32.768-0.064 45.248zM700.928 499.904c-12.48 12.544-32.896 12.48-45.248 0.064-12.544-12.48-12.544-32.704-0.128-45.248l19.52-19.584c6.272-6.272 14.528-9.408 22.656-9.408s16.384 3.136 22.592 9.344c12.544 12.48 12.544 32.704 0.128 45.248l-19.52 19.584zM925.76 587.968l-273.792 273.792c-33.92 34.048-89.344 34.112-123.456 0l-78.272-78.272c-6.016-5.952-9.344-14.080-9.344-22.592s3.392-16.64 9.344-22.656c4.416-4.416 6.848-10.304 6.848-16.512s-2.432-12.032-6.848-16.448c-8.768-8.832-24.128-8.832-32.96 0-12.48 12.48-32.768 12.48-45.248 0l-273.792-273.792c-33.984-34.048-33.984-89.472 0-123.456l78.272-78.272c6.016-6.016 14.144-9.344 22.656-9.344s16.64 3.392 22.656 9.344c19.264 19.264 52.736 19.264 72 0 9.6-9.6 14.912-22.464 14.912-36.032s-5.312-26.368-14.912-36.032c-6.016-6.016-9.344-14.144-9.344-22.656s3.392-16.64 9.344-22.656l78.208-78.272c17.024-17.024 39.424-25.472 61.76-25.472s44.736 8.512 61.696 25.472l273.792 273.792c6.016 6.016 9.344 14.144 9.344 22.656s-3.392 16.64-9.344 22.656c-4.416 4.352-6.848 10.24-6.848 16.448s2.432 12.096 6.848 16.512c8.832 8.896 24.256 8.768 32.96 0 6.016-6.016 14.144-9.344 22.656-9.344s16.64 3.392 22.656 9.344l78.272 78.208c33.984 34.112 33.984 89.536-0.064 123.584zM880.512 509.696l-59.904-59.84c-31.616 13.696-71.488 6.784-96.576-18.368-16.512-16.512-25.6-38.464-25.6-61.76 0-12.16 2.496-24 7.232-34.816l-255.424-255.424c-9.088-9.152-23.872-9.152-32.96 0l-58.752 58.816c9.28 16.768 14.208 35.776 14.208 55.424 0 30.72-11.968 59.648-33.664 81.344-21.696 21.76-50.624 33.664-81.28 33.664 0 0 0 0 0 0-19.712 0-38.656-4.928-55.488-14.208l-58.816 58.752c-9.088 9.088-9.088 23.872 0 32.96l255.424 255.424c31.616-13.76 71.488-6.72 96.576 18.368 16.512 16.448 25.6 38.4 25.6 61.696 0 12.16-2.496 24-7.232 34.88l59.904 59.84c9.152 9.152 23.808 9.088 32.96 0l273.792-273.792c8.896-8.896 8.896-24 0-32.96z" />
<glyph unicode="&#xe924;" glyph-name="youtube" d="M416 288c-5.824 0-11.712 1.6-16.832 4.736-9.408 5.888-15.168 16.192-15.168 27.264v256c0 11.072 5.76 21.376 15.168 27.2 9.472 5.824 21.184 6.336 31.104 1.408l256-128c10.88-5.44 17.728-16.512 17.728-28.608s-6.848-23.168-17.664-28.608l-256-128c-4.544-2.24-9.408-3.392-14.336-3.392zM448 524.224v-152.448l152.448 76.224-152.448 76.224zM526.272 96c-136.448 0-252.736 22.336-325.952 40.896-63.872 16.128-112.256 65.152-123.328 124.8-23.232 125.056-10.688 303.616 1.216 371.456v0c10.624 60.288 58.368 110.592 121.664 128 256.448 70.72 500.864 29.184 623.808-1.984 63.808-16.128 112.256-65.152 123.328-124.864 23.232-125.312 10.688-303.744-1.28-371.456-10.496-60.224-58.24-110.592-121.6-128.064-103.68-28.544-205.376-38.784-297.856-38.784zM141.248 622.080c-10.816-61.888-22.784-233.088-1.344-348.672 6.528-35.2 36.352-64.448 76.096-74.496 116.672-29.504 348.736-69.248 591.104-2.304 39.616 10.944 69.312 41.344 75.648 77.376 10.816 61.76 22.784 232.896 1.344 348.672-6.592 35.2-36.416 64.448-76.16 74.496-116.608 29.504-348.672 69.184-591.040 2.368-39.616-11.008-69.312-41.344-75.648-77.44v0z" />
<glyph unicode="&#xe925;" glyph-name="wechat" d="M938.688 422.656c-13.376 26.432-32.448 49.984-56.64 70.208-23.808 19.84-51.392 35.328-81.984 46.144-33.664 11.84-69.952 16.832-106.112 16 0.448 2.176 1.28 4.16 1.28 6.528 0 35.84-8.768 70.592-25.92 103.296-16.448 30.912-39.68 58.624-69.12 82.176-28.992 23.104-62.592 41.216-99.904 53.824-76.672 25.92-164.608 25.92-241.344 0-37.248-12.608-70.848-30.72-99.904-53.952-29.44-23.616-52.672-51.2-69.056-82.176-17.216-32.64-25.984-67.392-25.984-103.232 0-35.904 8.768-70.656 25.984-103.296 16.384-30.912 39.616-58.56 68.224-81.344 6.080-7.040 13.44-37.952 17.408-54.592 9.792-41.024 18.304-76.416 52.736-76.416 14.336 0 30.464 7.296 65.472 23.872 26.176 12.224 69.888 32.896 87.36 32.96 12.096 0.64 51.712 1.792 64.64 1.408 3.2-19.712 8.32-39.168 17.664-57.6 13.44-26.368 32.512-49.984 56.768-70.272 23.808-19.84 51.392-35.328 81.92-46.080 31.488-11.072 64.768-16.704 98.944-16.704 12.096 0 48.512-12.928 70.272-20.608 31.744-11.328 49.024-17.216 62.144-17.216 38.464 0 42.56 41.536 45.312 69.12 1.024 10.112 2.88 28.992 3.328 31.488 24.192 20.16 43.264 43.84 56.704 70.272 14.016 27.904 21.12 57.536 21.12 88.128 0 30.464-7.104 60.096-21.312 88.064zM379.648 366.592c-28.096 0-64.576-16.192-113.024-38.976-7.424-3.52-16.256-7.68-23.616-11.136-1.856 6.848-3.648 14.528-5.12 20.672-8.832 36.8-17.088 71.488-38.848 88.832-22.592 18.048-40.256 38.912-52.48 62.080-12.288 23.36-18.56 48-18.56 73.408 0 25.344 6.272 50.048 18.56 73.344 12.224 23.168 29.888 44.032 52.48 62.080 23.168 18.56 50.24 33.088 80.448 43.328 63.424 21.44 136.896 21.44 200.32 0 30.208-10.24 57.28-24.768 80.448-43.328 22.592-18.048 40.192-38.912 52.48-62.016 12.288-23.36 18.56-48.064 18.56-73.408 0-5.12 1.472-9.792 3.648-14.144-11.072-2.432-22.208-4.608-32.832-8.384-30.592-10.816-58.176-26.304-81.92-46.080-24.192-20.16-43.264-43.776-56.704-70.208-8.896-17.536-14.016-35.904-17.344-54.656-15.040 0.384-55.36-0.896-66.496-1.408zM881.664 275.456c-9.472-18.624-23.104-35.456-40.576-49.984-20.352-16.96-23.424-47.424-26.048-74.432-0.192-1.664-0.384-3.584-0.576-5.504-7.168 2.432-15.040 5.248-21.824 7.616-40.064 14.272-70.144 24.32-91.648 24.32-26.944 0-53.056 4.352-77.696 13.056-23.296 8.192-44.224 20.032-62.208 34.88-17.472 14.656-31.168 31.424-40.64 49.984-9.472 18.816-14.336 38.72-14.336 59.2s4.864 40.32 14.336 59.072c9.472 18.624 23.104 35.456 40.64 50.048 17.92 14.912 38.848 26.688 62.208 34.88 24.576 8.64 50.688 13.056 77.696 13.056s53.184-4.352 77.76-13.056c23.36-8.256 44.288-20.032 62.272-34.88 17.472-14.592 31.104-31.424 40.576-49.984 9.6-18.88 14.4-38.784 14.4-59.136 0-20.48-4.8-40.32-14.336-59.136zM278.528 640c-22.848 0-41.408-18.624-41.408-41.472s18.624-41.408 41.408-41.408c22.848 0 41.472 18.56 41.472 41.408s-18.624 41.472-41.472 41.472zM489.472 640c-22.848 0-41.472-18.624-41.472-41.472s18.624-41.408 41.472-41.408c22.848 0 41.408 18.624 41.408 41.408 0 22.848-18.56 41.472-41.408 41.472zM597.056 385.408c-22.848 0-41.408-18.56-41.408-41.408s18.624-41.408 41.408-41.408c22.848 0 41.472 18.56 41.472 41.408s-18.56 41.408-41.472 41.408zM827.584 344c0-22.869-18.539-41.408-41.408-41.408s-41.408 18.539-41.408 41.408c0 22.869 18.539 41.408 41.408 41.408s41.408-18.539 41.408-41.408z" />
<glyph unicode="&#xe926;" glyph-name="mobile" d="M721.408 0h-418.88c-53.952 0-78.528 49.728-78.528 96v704c0 70.464 46.976 96 78.528 96h418.88c54.016 0 78.592-49.728 78.592-96v-704c0-70.464-46.976-96-78.592-96zM302.528 832c-8.96-0.832-14.528-12.224-14.528-32v-704c0-0.128 1.472-32 14.528-32h418.88c9.024 0.832 14.592 12.16 14.592 32v704c0 0.128-1.408 32-14.592 32h-418.88zM544 128h-64c-17.664 0-32 14.336-32 32s14.336 32 32 32h64c17.664 0 32-14.336 32-32s-14.336-32-32-32z" />
<glyph unicode="&#xe927;" glyph-name="user-check" d="M480 128h-287.616c-14.784 0.384-32.384 6.272-32.384 32v63.104c0.064 1.344 2.56 34.816 51.2 71.232 56.704 42.56 180.224 57.6 268.8 57.6s212.096-15.040 268.8-57.6c14.080-10.56 34.112-7.744 44.8 6.464 10.56 14.144 7.68 34.176-6.464 44.8-50.048 37.568-127.168 54.848-193.536 63.040 16.64 8.704 31.808 18.88 43.584 32.256 41.024 46.4 35.072 103.104 34.816 103.104v64c0 77.44-40.128 224-192 224s-192-146.56-192-224l0.256-60.032c-0.32-2.432-6.976-60.032 34.432-107.008 11.84-13.376 26.944-23.552 43.648-32.256-66.304-8.192-143.424-25.536-193.536-63.104-74.688-56-76.8-115.072-76.8-121.6v-64c0-70.464 57.408-96 96-96h288c17.664 0 32 14.336 32 32s-14.336 32-32 32zM352 544v64c0 6.528 1.472 160 128 160 125.76 0 127.936-153.536 128-160l0.256-67.968c0.064-0.32 2.88-32-18.944-56.768-20.672-23.36-57.408-35.264-109.312-35.264-51.392 0-88 11.712-108.736 34.688-22.528 24.96-19.584 56.32-19.264 61.312zM920.32 308.8c-11.584 13.376-31.744 14.848-45.12 3.52l-201.536-172.736-75.072 75.072c-12.48 12.48-32.768 12.48-45.248 0s-12.48-32.768 0-45.248l96-96c1.92-1.92 4.288-3.008 6.528-4.352 1.216-0.704 2.24-1.792 3.52-2.304 4.032-1.792 8.32-2.752 12.608-2.752 3.904 0 7.744 0.832 11.456 2.24 1.216 0.448 2.24 1.344 3.392 1.984 2.048 1.088 4.16 1.92 5.952 3.456l224 192c13.44 11.52 15.040 31.744 3.52 45.12z" />
<glyph unicode="&#xe928;" glyph-name="yen" d="M512 832c-211.776 0-384-172.224-384-384s172.224-384 384-384 384 172.224 384 384-172.224 384-384 384zM512 128c-176.448 0-320 143.552-320 320s143.552 320 320 320 320-143.552 320-320-143.552-320-320-320zM649.344 630.656l-137.344-137.408-137.344 137.408c-12.48 12.48-32.768 12.48-45.248 0s-12.48-32.768 0-45.248l137.344-137.408h-82.752c-17.664 0-32-14.336-32-32s14.336-32 32-32h96v-32h-96c-17.664 0-32-14.336-32-32s14.336-32 32-32h96v-64c0-17.664 14.336-32 32-32s32 14.336 32 32v64h96c17.664 0 32 14.336 32 32s-14.336 32-32 32h-96v32h96c17.664 0 32 14.336 32 32s-14.336 32-32 32h-82.752l137.344 137.344c12.48 12.48 12.48 32.768 0 45.248s-32.704 12.544-45.248 0.064z" />
<glyph unicode="&#xe929;" glyph-name="tugrik" d="M512 832c-211.776 0-384-172.224-384-384s172.224-384 384-384 384 172.224 384 384-172.224 384-384 384zM512 128c-176.448 0-320 143.552-320 320s143.552 320 320 320 320-143.552 320-320-143.552-320-320-320zM672 640h-320c-17.664 0-32-14.336-32-32s14.336-32 32-32h128v-103.040l-103.744-25.92c-17.152-4.288-27.584-21.696-23.296-38.784 3.648-14.592 16.64-24.256 31.040-24.256 2.56 0 5.184 0.32 7.808 0.96l88.192 22.080v-46.080l-103.744-25.92c-17.152-4.288-27.584-21.696-23.296-38.784 3.648-14.592 16.64-24.256 31.040-24.256 2.56 0 5.184 0.32 7.808 0.96l88.192 22.016v-70.976c0-17.664 14.336-32 32-32s32 14.336 32 32v86.976l103.744 25.92c17.216 4.288 27.584 21.696 23.296 38.784-4.288 17.152-22.080 27.776-38.784 23.296l-88.256-22.016v46.080l103.744 25.92c17.216 4.288 27.584 21.632 23.296 38.784s-22.080 27.712-38.784 23.296l-88.256-22.080v87.040h128c17.664 0 32 14.336 32 32s-14.336 32-32 32z" />
<glyph unicode="&#xe92a;" glyph-name="instagram" d="M672 64h-320c-123.52 0-224 100.48-224 224v320c0 123.52 100.48 224 224 224h320c123.52 0 224-100.48 224-224v-320c0-123.52-100.48-224-224-224zM352 768c-88.192 0-160-71.808-160-160v-320c0-88.256 71.808-160 160-160h320c88.256 0 160 71.744 160 160v320c0 88.192-71.744 160-160 160h-320zM512 256c-105.856 0-192 86.144-192 192s86.144 192 192 192 192-86.144 192-192-86.144-192-192-192zM512 576c-70.592 0-128-57.408-128-128s57.408-128 128-128c70.592 0 128 57.408 128 128s-57.408 128-128 128zM768 656c0-26.51-21.49-48-48-48s-48 21.49-48 48c0 26.51 21.49 48 48 48s48-21.49 48-48z" />
<glyph unicode="&#xe92b;" glyph-name="twitter" d="M409.088 73.216c-170.496 0-319.232 76.416-327.936 81.024-13.056 6.848-19.776 21.76-16.192 36.032 3.52 14.336 16.32 24.384 31.040 24.384 84.352 0 149.44 18.688 190.144 35.008-277.056 190.656-156.928 486.208-155.648 489.28 4.8 11.328 15.616 18.944 27.904 19.584 12.864 0.064 23.872-5.888 29.696-16.64 67.328-123.456 227.648-141.44 293.248-143.488 11.776 140.16 101.12 205.696 189.824 208.128 68.096 2.304 123.968-35.456 143.040-50.304 17.664 1.792 62.272 28.096 91.2 56.96 9.216 9.152 22.976 11.84 34.88 6.848 11.904-4.864 19.712-16.512 19.712-29.44 0-75.968-48.32-149.056-65.344-172.416-31.616-250.56-122.944-417.152-271.488-495.36-69.504-36.544-143.616-49.6-214.080-49.6zM229.952 165.376c98.752-28.864 242.304-49.792 363.648 14.208 130.368 68.736 210.624 221.76 238.656 454.784 0.704 5.888 3.072 11.52 6.72 16.128 0.32 0.448 20.224 25.792 36.416 60.416-27.392-14.72-58.368-23.808-85.568-14.656-4.096 1.344-7.936 3.584-11.2 6.464-0.384 0.32-45.568 41.152-105.792 39.872-62.272-1.728-128.832-48.896-128.832-176 0-16.896-13.12-30.848-30.016-31.936-10.048-0.576-220.864-11.968-341.248 119.424-16.96-90.752-15.616-263.808 194.688-379.456 9.792-5.44 16.064-15.488 16.576-26.688s-4.928-21.824-14.208-28.032c-3.008-1.984-53.12-34.688-139.84-54.528z" />
<glyph unicode="&#xe92c;" glyph-name="facebook" d="M584 2.624h-192c-17.664 0-32 14.336-32 32v319.936h-80c-17.664 0-32 14.4-32 32v128c0 17.664 14.336 32 32 32h80v108.48c0 83.264 26.688 146.24 79.296 187.328 104.96 81.856 273.472 41.088 280.448 39.232 14.272-3.584 24.256-16.32 24.256-31.040v-131.584c0-17.664-14.336-32-32-32h-64c-25.728 0-31.616-17.6-32-32.384v-111.616h128c9.856 0 19.2-4.544 25.28-12.288s8.192-17.856 5.824-27.456l-32-128c-3.584-14.272-16.384-24.256-31.040-24.256h-96v-316.416c-0.064-17.6-14.4-31.936-32.064-31.936zM424 66.624h128v316.416c0 17.664 14.336 32 32 32h102.976l16 64h-118.976c-17.664 0-32 14.336-32 32v144c0 38.592 25.536 96 96 96h32v73.088c-44.8 6.976-141.312 14.848-201.472-32.32-36.16-28.288-54.528-74.368-54.528-136.768v-140.416c0-17.664-14.336-32-32-32h-80v-64h80c17.664 0 32-14.336 32-32v-320z" />
<glyph unicode="&#xe92d;" glyph-name="filter" d="M864 480h-165.888c-13.248 37.184-48.448 64-90.112 64s-76.864-26.816-90.112-64h-357.888c-17.664 0-32-14.336-32-32s14.336-32 32-32h357.888c13.248-37.184 48.448-64 90.112-64s76.864 26.816 90.112 64h165.888c17.664 0 32 14.336 32 32s-14.336 32-32 32zM608 416c-17.6 0-32 14.336-32 32s14.4 32 32 32 32-14.336 32-32-14.4-32-32-32zM864 256h-421.888c-13.248 37.184-48.448 64-90.112 64s-76.864-26.816-90.112-64h-101.888c-17.664 0-32-14.336-32-32s14.336-32 32-32h101.888c13.248-37.184 48.448-64 90.112-64s76.864 26.816 90.112 64h421.888c17.664 0 32 14.336 32 32s-14.336 32-32 32zM352 192c-17.664 0-32 14.4-32 32s14.336 32 32 32 32-14.4 32-32-14.336-32-32-32zM224 576c41.664 0 76.864 26.816 90.112 64h549.888c17.664 0 32 14.336 32 32s-14.336 32-32 32h-549.888c-13.248 37.184-48.448 64-90.112 64-52.928 0-96-43.072-96-96s43.072-96 96-96zM224 704c17.664 0 32-14.336 32-32s-14.336-32-32-32-32 14.336-32 32 14.336 32 32 32z" />
<glyph unicode="&#xe92e;" glyph-name="diamond" d="M959.424 541.056c0.064 1.024 0.576 1.92 0.576 2.944 0 4.928-1.28 9.408-3.264 13.568-0.128 0.256 0 0.512-0.128 0.768l-128 256c-0.384 0.832-1.28 1.152-1.792 1.92-1.024 1.664-1.6 3.52-2.88 4.992-1.536 1.728-3.52 2.688-5.312 3.968-1.088 0.832-1.92 1.664-3.136 2.368-4.608 2.624-9.6 4.096-14.848 4.224-0.192 0-0.384 0.192-0.64 0.192h-576c-0.256 0-0.448-0.192-0.704-0.192-5.184-0.128-10.176-1.6-14.784-4.224-1.216-0.64-2.048-1.536-3.136-2.368-1.792-1.28-3.776-2.24-5.312-3.968-1.28-1.472-1.856-3.264-2.816-4.928-0.512-0.768-1.472-1.152-1.856-1.984l-128-256c-0.128-0.256 0-0.512-0.128-0.768-1.984-4.16-3.264-8.64-3.264-13.568 0-1.024 0.512-1.92 0.576-2.88 0.128-1.344 0.448-2.496 0.768-3.776 1.152-5.248 3.264-9.984 6.656-13.888 0.32-0.384 0.256-0.896 0.576-1.216l416-448c1.024-1.088 2.432-1.6 3.584-2.56s2.24-1.728 3.52-2.496c4.992-3.008 10.368-5.184 16.32-5.184s11.328 2.176 16.32 5.184c1.28 0.768 2.368 1.536 3.52 2.496s2.56 1.472 3.584 2.56l416 448c0.32 0.32 0.256 0.832 0.576 1.152 3.392 3.968 5.504 8.704 6.656 14.016 0.256 1.216 0.64 2.304 0.768 3.648zM233.984 748.352l193.856-172.352h-280.064l86.208 172.352zM626.624 512l-114.624-320.896-114.624 320.896h229.248zM308.16 768h407.68l-203.84-181.184-203.84 181.184zM329.472 512l100.032-280.192-260.096 280.192h160.064zM694.528 512h160.064l-260.096-280.192 100.032 280.192zM596.16 576l193.92 172.352 86.144-172.352h-280.064z" />
<glyph unicode="&#xe92f;" glyph-name="crown" d="M824.128 203.584c1.664 1.92 3.008 4.032 4.16 6.4 0.64 1.344 1.28 2.624 1.792 4.032 0.256 0.768 0.768 1.408 0.96 2.24l60.096 240.448c40.384 16.96 68.864 56.832 68.864 103.296 0 61.76-50.24 112-112 112s-112-50.24-112-112c0-22.336 6.72-43.072 18.048-60.544l-93.056-15.488-50.624 139.136c18.24 22.144 29.632 50.048 29.632 80.896 0 70.592-57.408 128-128 128s-128-57.408-128-128c0-30.848 11.392-58.752 29.632-80.896l-50.496-138.816-92.288 16.768c10.688 17.216 17.152 37.248 17.152 58.944 0 61.76-50.24 112-112 112s-112-50.24-112-112c0-46.464 28.48-86.336 68.8-103.296l60.16-240.448c0.256-0.896 0.768-1.6 1.088-2.496 0.384-1.216 0.96-2.304 1.536-3.456 1.152-2.432 2.56-4.672 4.288-6.72 0.512-0.64 0.704-1.408 1.28-2.048 9.6-9.92 37.952-45.184 0.192-82.944-9.152-9.152-11.904-22.912-6.912-34.88 4.928-11.904 16.64-19.712 29.568-19.712h576c12.928 0 24.64 7.808 29.568 19.776s2.176 25.728-6.912 34.88c-37.76 37.76-9.344 73.024 0.192 82.944 0.576 0.576 0.768 1.344 1.28 1.984zM848 608c26.432 0 48-21.504 48-48s-21.568-48-48-48-48 21.504-48 48 21.568 48 48 48zM512 768c35.264 0 64-28.736 64-64s-28.736-64-64-64-64 28.736-64 64 28.736 64 64 64zM378.24 416.512c1.92-0.384 3.84-0.512 5.76-0.512 13.248 0 25.344 8.256 30.016 21.056l53.632 147.328c13.888-5.184 28.672-8.384 44.352-8.384s30.464 3.2 44.352 8.384l53.568-147.328c4.672-12.8 16.832-21.056 30.080-21.056 1.728 0 3.52 0.128 5.248 0.448l177.216 29.568-47.488-190.016h-526.016l-48.32 193.152c0.576-0.128 1.024-0.512 1.664-0.64l175.936-32zM176 608c26.496 0 48-21.504 48-48s-21.504-48-48-48-48 21.504-48 48 21.504 48 48 48zM280.128 128c6.4 22.4 4.48 44.288-1.536 64h466.816c-6.016-19.712-7.936-41.6-1.536-64h-463.744z" />
<glyph unicode="&#xe930;" glyph-name="medal" d="M860.608 622.336l-128 256c-5.44 10.816-16.512 17.664-28.608 17.664h-384c-12.096 0-23.168-6.848-28.608-17.664l-128-256c-4.48-8.96-4.48-19.392-0.128-28.352s12.672-15.424 22.464-17.344l187.968-37.568c-88.768-49.152-149.696-142.656-149.696-251.072 0-158.784 129.216-288 288-288s288 129.216 288 288c0 108.416-60.928 201.92-149.696 251.072l187.968 37.568c9.792 1.92 18.112 8.32 22.528 17.344s4.288 19.392-0.192 28.352zM557.824 585.792c-0.512 1.472-0.512 3.072-1.216 4.48l-120.832 241.728h88.448l114.944-229.888-81.344-16.32zM489.664 581.12l-98.496 19.712 42.24 92.864 56.256-112.576zM339.776 832h24.448l32.32-64.64-69.824-153.664-87.36 17.472 100.416 200.832zM736 288c0-123.52-100.48-224-224-224s-224 100.48-224 224 100.48 224 224 224 224-100.48 224-224zM702.656 614.784c-0.576 2.56-0.832 5.12-2.048 7.552l-104.832 209.664h88.448l100.352-200.832-81.92-16.384zM352 288c0-88.256 71.808-160 160-160 88.256 0 160 71.744 160 160s-71.744 160-160 160c-88.192 0-160-71.744-160-160zM608 288c0-52.928-43.072-96-96-96s-96 43.072-96 96 43.072 96 96 96 96-43.072 96-96z" />
<glyph unicode="&#xe931;" glyph-name="check-circle" d="M651.2 568.256l-201.536-172.672-75.008 75.072c-12.48 12.48-32.768 12.48-45.248 0s-12.48-32.768 0-45.248l96-96c1.92-1.92 4.288-3.008 6.592-4.352 1.216-0.704 2.176-1.792 3.456-2.304 3.968-1.792 8.256-2.752 12.544-2.752 3.904 0 7.744 0.832 11.456 2.24 1.28 0.448 2.304 1.408 3.456 2.048 1.984 1.088 4.096 1.92 5.888 3.456l224 192c13.44 11.52 14.976 31.68 3.52 45.12-11.584 13.44-31.744 14.912-45.12 3.392zM512 832c-211.776 0-384-172.224-384-384s172.224-384 384-384 384 172.224 384 384-172.224 384-384 384zM512 128c-176.448 0-320 143.552-320 320s143.552 320 320 320 320-143.552 320-320-143.552-320-320-320z" />
<glyph unicode="&#xe932;" glyph-name="finger-print" d="M256 368c-17.664 0-32 14.336-32 32v144c0 38.912 7.616 76.608 22.656 112.128 14.464 34.24 35.2 65.024 61.632 91.52 26.56 26.496 57.344 47.232 91.648 61.696 70.912 30.016 153.28 30.080 224.192 0 16.256-6.912 23.872-25.664 16.96-41.92-6.784-16.32-25.6-23.872-41.92-17.024-55.104 23.424-119.232 23.424-174.336 0-26.624-11.264-50.624-27.392-71.232-48s-36.736-44.544-48-71.168c-11.712-27.584-17.6-56.96-17.6-87.232v-144c0-17.664-14.336-32-32-32zM412.352 84.096c-4.16 0-8.384 0.832-12.416 2.496-34.304 14.528-65.088 35.264-91.584 61.76-12.48 12.48-12.48 32.768 0 45.248s32.768 12.48 45.248 0c20.608-20.608 44.544-36.736 71.168-48 16.256-6.848 23.936-25.664 17.024-41.92-5.12-12.224-16.96-19.584-29.44-19.584zM512 64c-17.664 0-32 14.336-32 32s14.336 32 32 32c30.208 0 59.52 5.952 87.168 17.6 26.688 11.264 50.624 27.456 71.104 48 12.48 12.48 32.832 12.416 45.312 0.064 12.48-12.48 12.48-32.768 0.064-45.312-26.432-26.432-57.28-47.168-91.648-61.76-35.52-14.976-73.216-22.592-112-22.592zM768 320c-17.664 0-32 14.336-32 32v192c0 30.208-5.952 59.584-17.6 87.232-6.848 16.256 0.768 35.008 17.088 41.92 16.128 6.784 35.008-0.704 41.92-17.024 14.976-35.584 22.592-73.344 22.592-112.128v-192c0-17.664-14.336-32-32-32zM512 192c-21.632 0-42.624 4.224-62.336 12.608-19.072 8.064-36.16 19.648-50.816 34.24-14.656 14.656-26.24 31.744-34.304 50.88-8.32 19.776-12.544 40.704-12.544 62.272v192c0 17.664 14.336 32 32 32s32-14.336 32-32v-192c0-12.928 2.56-25.472 7.552-37.376 4.864-11.456 11.776-21.696 20.544-30.464 8.832-8.896 19.136-15.808 30.592-20.672 23.488-9.984 51.136-9.984 74.624 0 11.456 4.864 21.76 11.84 30.592 20.608s15.744 19.072 20.608 30.592c6.784 16.256 25.728 23.872 41.92 16.96 16.256-6.848 23.872-25.664 16.96-41.92-8.064-19.072-19.648-36.16-34.24-50.816s-31.744-26.176-50.816-34.24c-19.712-8.448-40.704-12.672-62.336-12.672zM640 416c-17.664 0-32 14.336-32 32v96c0 12.992-2.496 25.536-7.488 37.312-4.864 11.456-11.84 21.76-20.608 30.592-8.832 8.832-19.072 15.744-30.528 20.544-23.68 9.984-51.072 9.984-74.752 0-16.256-6.848-35.008 0.768-41.92 17.024-6.848 16.256 0.768 35.072 17.024 41.92 39.488 16.768 84.992 16.768 124.48 0 19.136-8.064 36.224-19.648 50.944-34.304 14.592-14.592 26.112-31.68 34.176-50.752 8.448-19.712 12.672-40.704 12.672-62.336v-96c0-17.664-14.336-32-32-32zM512 320c-17.664 0-32 14.336-32 32v24c0 17.664 14.336 32 32 32s32-14.336 32-32v-24c0-17.664-14.336-32-32-32zM512 440c-17.664 0-32 14.336-32 32v72c0 17.664 14.336 32 32 32s32-14.336 32-32v-72c0-17.664-14.336-32-32-32z" />
<glyph unicode="&#xe933;" glyph-name="lock" d="M736 576h-32v96c0 55.36-40.128 160-192 160s-192-104.64-192-160v-96h-32c-38.592 0-96-25.536-96-96v-320c0-38.592 25.536-96 96-96h448c38.592 0 96 25.536 96 96v320c0 38.592-25.536 96-96 96zM384 672c0 3.904 1.472 96 128 96 122.688 0 127.808-86.464 128-96v-96h-256v96zM768 160c0-25.728-17.6-31.616-32-32h-448c-25.792 0-31.616 17.6-32 32v320c0 25.664 17.472 31.616 32.256 32h447.744c25.728 0 31.616-17.6 32-32v-320zM512 448c-52.928 0-96-43.072-96-96 0-41.664 26.816-76.864 64-90.112v-37.888c0-17.664 14.336-32 32-32s32 14.336 32 32v37.888c37.184 13.248 64 48.448 64 90.112 0 52.928-43.072 96-96 96zM512 320c-17.664 0-32 14.4-32 32s14.336 32 32 32 32-14.4 32-32-14.336-32-32-32z" />
<glyph unicode="&#xe934;" glyph-name="plus-circle" d="M512 832c-211.776 0-384-172.224-384-384s172.224-384 384-384 384 172.224 384 384-172.224 384-384 384zM512 128c-176.448 0-320 143.552-320 320s143.552 320 320 320 320-143.552 320-320-143.552-320-320-320zM672 480h-128v128c0 17.664-14.336 32-32 32s-32-14.336-32-32v-128h-128c-17.664 0-32-14.336-32-32s14.336-32 32-32h128v-128c0-17.664 14.336-32 32-32s32 14.336 32 32v128h128c17.664 0 32 14.336 32 32s-14.336 32-32 32z" />
<glyph unicode="&#xe935;" glyph-name="switch" d="M830.784 264.768c0 0.128-0.128 0.192-0.128 0.32-1.152 3.84-2.944 7.616-5.632 10.944-1.088 1.344-2.56 2.048-3.776 3.136-0.576 0.512-0.64 1.344-1.216 1.856l-160 128c-13.76 10.944-33.92 8.768-44.992-4.992-11.008-13.824-8.832-33.92 4.992-44.992l88.768-70.976h-484.8c-17.664-0.064-32-14.4-32-32.064s14.336-32 32-32h484.736l-88.768-70.976c-13.824-11.072-16-31.168-4.992-44.992 6.336-7.936 15.68-12.032 25.024-12.032 6.976 0 14.080 2.304 20.032 6.976l160 128c4.48 3.584 7.232 8.192 9.216 13.12 0.192 0.512 0.768 0.768 0.96 1.28 0.256 0.64-0.128 1.344 0.064 2.048 1.536 5.696 2.112 11.584 0.512 17.344zM193.216 631.168c0 0 0.064-0.064 0.064-0.064 1.152-3.904 3.008-7.68 5.696-11.136 1.024-1.216 2.432-1.728 3.52-2.752 0.64-0.64 0.768-1.664 1.472-2.24l160-128c5.952-4.672 12.992-6.976 20.032-6.976 9.408 0 18.688 4.096 25.024 12.032 11.008 13.824 8.768 33.92-4.992 44.992l-88.832 70.976h484.8c17.664 0 32 14.336 32 32s-14.336 32-32 32h-484.736l88.768 70.976c13.76 11.072 16 31.168 4.992 44.992-11.072 13.696-31.168 16-44.992 4.992l-160-128c-4.48-3.52-7.232-8.128-9.216-13.056-0.192-0.512-0.832-0.768-1.024-1.28-0.192-0.704 0.128-1.408-0.064-2.112-1.536-5.696-2.112-11.584-0.512-17.344z" />
<glyph unicode="&#xe936;" glyph-name="star-check" d="M276.544 18.624c-13.824 0-27.584 4.352-39.36 12.864-20.864 15.104-31.040 40.32-26.688 65.664l38.976 227.328-165.184 161.024c-18.432 17.984-24.896 44.288-16.96 68.8 7.936 24.448 28.672 41.92 54.144 45.632l228.224 33.216 102.144 206.784c22.72 46.208 97.536 46.208 120.32 0l102.080-206.784 228.288-33.216c25.408-3.712 46.208-21.184 54.144-45.632s1.408-50.816-16.96-68.8l-165.184-161.024 39.040-227.328c4.288-25.408-5.952-50.624-26.816-65.728-20.8-15.104-47.808-17.088-70.656-4.992l-204.096 107.392-204.16-107.392c-9.92-5.248-20.672-7.808-31.296-7.808zM512 201.92c5.12 0 10.24-1.28 14.912-3.712l219.008-115.2-37.376 247.232c-1.728 10.432 1.664 20.992 9.28 28.352l177.28 172.672-246.656 40.896c-10.432 1.536-19.52 8.128-24.128 17.536l-109.568 221.952c-0.256 0.576-0.832 1.664-2.752 1.664l-112.32-223.616c-4.672-9.408-13.632-16-24.064-17.472l-244.928-35.584 175.488-177.984c7.552-7.36 10.944-17.92 9.216-28.288l-41.792-244.032 223.552 111.936c4.608 2.432 9.728 3.648 14.848 3.648zM633.6 532.672l-169.856-166.016-73.664 70.336c-12.736 12.096-33.024 11.648-45.248-1.088-12.16-12.8-11.712-33.024 1.088-45.248l96-91.648c1.792-1.664 4.032-2.624 6.080-3.84 1.408-0.832 2.624-2.048 4.096-2.624 3.84-1.536 7.872-2.304 11.904-2.304 4.096 0 8.192 0.832 12.096 2.432 1.344 0.512 2.368 1.664 3.648 2.368 2.304 1.344 4.672 2.432 6.656 4.352l192 187.648c12.608 12.352 12.864 32.576 0.512 45.248-12.288 12.48-32.512 12.736-45.312 0.384z" />
<glyph unicode="&#xe937;" glyph-name="question" d="M512 320.512c-0.256 0-0.512 0-0.832 0-17.344 0.448-31.168 14.144-31.168 31.552 0 4.608 1.152 46.336 41.344 86.592 13.44 13.44 31.616 22.336 50.816 31.68 42.24 20.544 67.84 35.776 67.84 73.664 0 69.376-58.624 128-128 128s-128-58.624-128-128c0-17.664-14.336-32-32-32s-32 14.336-32 32c0 104.064 87.936 192 192 192s192-87.936 192-192c0-80.64-62.464-111.104-103.744-131.2-13.632-6.656-27.712-13.504-33.6-19.456-21.376-21.376-22.656-41.216-22.656-42.048-0.896-17.024-14.976-30.784-32-30.784zM560 208c0-26.51-21.49-48-48-48s-48 21.49-48 48c0 26.51 21.49 48 48 48s48-21.49 48-48z" />
<glyph unicode="&#xe938;" glyph-name="info" d="M512 64c-211.776 0-384 172.224-384 384s172.224 384 384 384 384-172.224 384-384-172.224-384-384-384zM512 768c-176.448 0-320-143.552-320-320s143.552-320 320-320 320 143.552 320 320-143.552 320-320 320zM560 624c0-26.51-21.49-48-48-48s-48 21.49-48 48c0 26.51 21.49 48 48 48s48-21.49 48-48zM520 224c-17.664 0-32 14.336-32 32v196.288c-9.536 5.504-16 15.872-16 27.712 0 17.664 14.336 32 32 32 23.296 0 48-16.832 48-48v-208c0-17.664-14.336-32-32-32zM504 448v0z" />
<glyph unicode="&#xe939;" glyph-name="qr" d="M192 544h128c51.2 0 96 44.8 96 96v128c0 51.2-44.8 96-96 96h-128c-51.2 0-96-44.8-96-96v-128c0-51.2 44.8-96 96-96zM160 768c0 19.2 12.8 32 32 32h128c19.2 0 32-12.8 32-32v-128c0-19.2-12.8-32-32-32h-128c-19.2 0-32 12.8-32 32v128zM320 352h-128c-51.2 0-96-44.8-96-96v-128c0-51.2 44.8-96 96-96h128c51.2 0 96 44.8 96 96v128c0 51.2-44.8 96-96 96zM352 128c0-19.2-12.8-32-32-32h-128c-19.2 0-32 12.8-32 32v128c0 19.2 12.8 32 32 32h128c19.2 0 32-12.8 32-32v-128zM832 864h-128c-51.2 0-96-44.8-96-96v-128c0-51.2 44.8-96 96-96h128c51.2 0 96 44.8 96 96v128c0 51.2-44.8 96-96 96zM864 640c0-19.2-12.8-32-32-32h-128c-19.2 0-32 12.8-32 32v128c0 19.2 12.8 32 32 32h128c19.2 0 32-12.8 32-32v-128zM896 288c-19.2 0-32-12.8-32-32v-128c0-25.6-19.2-32-32-32h-128c-19.2 0-32-12.8-32-32s12.8-32 32-32h128c38.4 0 96 25.6 96 96v128c0 19.2-12.8 32-32 32zM672 256c0 25.6 19.2 32 32 32h32c19.2 0 32 12.8 32 32s-12.8 32-32 32h-32c-38.4 0-96-25.6-96-96v-32c0-19.2 12.8-32 32-32s32 12.8 32 32v32zM512 256c-19.2 0-32-12.8-32-32v-128c0-19.2 12.8-32 32-32s32 12.8 32 32v128c0 19.2-12.8 32-32 32zM512 480h-96c-19.2 0-32-12.8-32-32s12.8-32 32-32h64v-64c0-19.2 12.8-32 32-32s32 12.8 32 32v96c0 19.2-12.8 32-32 32zM512 832c-19.2 0-32-12.8-32-32v-224c0-19.2 12.8-32 32-32s32 12.8 32 32v224c0 19.2-12.8 32-32 32zM640 416h224c19.2 0 32 12.8 32 32s-12.8 32-32 32h-224c-19.2 0-32-12.8-32-32s12.8-32 32-32zM160 480c-12.8 0-32-12.8-32-32s12.8-32 32-32h128c19.2 0 32 12.8 32 32s-12.8 32-32 32h-128z" />
<glyph unicode="&#xe93a;" glyph-name="settings" d="M928 546.56h-95.104l-24.256 58.688 67.264 67.264c6.016 6.016 9.344 14.144 9.344 22.656s-3.392 16.64-9.344 22.656l-94.208 94.144c-12.032 12.032-33.28 12.032-45.248 0l-67.2-67.264-58.688 24.192v95.104c0 17.664-14.336 32-32 32h-133.12c-17.664 0-32-14.336-32-32v-95.104l-58.688-24.32-67.2 67.264c-12.48 12.48-32.768 12.48-45.248 0l-94.144-94.144c-12.48-12.48-12.48-32.768 0-45.248l67.264-67.264-24.32-58.624h-95.104c-17.664 0-32-14.336-32-32v-133.12c0-17.664 14.336-32 32-32h95.104l24.32-58.688-67.264-67.2c-6.016-6.016-9.344-14.144-9.344-22.656s3.392-16.64 9.344-22.656l94.144-94.208c6.016-6.016 14.144-9.344 22.656-9.344s16.64 3.392 22.656 9.344l67.264 67.264 58.688-24.256v-95.040c0-17.664 14.336-32 32-32h133.12c17.664 0 32 14.336 32 32v95.104l58.688 24.256 67.2-67.264c12.032-12.032 33.28-12.032 45.248 0l94.208 94.208c6.016 6.016 9.344 14.144 9.344 22.656s-3.392 16.64-9.344 22.656l-67.264 67.2 24.256 58.688h94.976c17.664 0 32 14.336 32 32v133.056c0 17.664-14.336 32-32 32zM896 413.44h-84.48c-12.928 0-24.64-7.808-29.568-19.776l-40.64-98.176c-4.928-12.032-2.176-25.728 6.912-34.88l59.776-59.712-48.96-48.96-59.712 59.776c-9.152 9.152-22.784 11.84-34.88 6.912l-98.176-40.64c-11.968-4.928-19.776-16.64-19.776-29.568v-84.416h-69.056v84.48c0 12.928-7.808 24.64-19.776 29.568l-98.176 40.64c-11.968 4.928-25.664 2.24-34.88-6.912l-59.776-59.776-48.832 48.96 59.776 59.712c9.152 9.152 11.904 22.912 6.912 34.88l-40.64 98.112c-4.992 11.968-16.64 19.776-29.568 19.776h-84.48v69.12h84.48c12.928 0 24.576 7.808 29.568 19.776l40.704 98.176c4.992 11.968 2.24 25.728-6.912 34.88l-59.84 59.712 48.896 48.896 59.776-59.776c9.216-9.152 22.976-11.84 34.88-6.912l98.176 40.704c11.904 4.928 19.712 16.576 19.712 29.504v84.48h69.12v-84.48c0-12.928 7.808-24.576 19.776-29.568l98.176-40.704c11.904-4.992 25.728-2.24 34.88 6.912l59.712 59.776 48.96-48.896-59.776-59.776c-9.152-9.152-11.904-22.912-6.912-34.88l40.64-98.176c4.928-11.968 16.64-19.776 29.568-19.776h84.416v-68.992zM512 640c-105.856 0-192-86.144-192-192s86.144-192 192-192 192 86.144 192 192-86.144 192-192 192zM512 320c-70.592 0-128 57.408-128 128s57.408 128 128 128c70.592 0 128-57.408 128-128s-57.408-128-128-128z" />
<glyph unicode="&#xe93b;" glyph-name="signal-device" d="M288 651.072c92.736 0 168.128-77.44 168.128-172.672 0-17.664 14.336-32 32-32s32 14.272 32 32c0 130.496-104.128 236.672-232.128 236.672-17.664 0-32-14.336-32-32s14.336-32 32-32zM288 768c155.776 0 282.496-129.92 282.496-289.6 0-17.664 14.336-32 32-32s32 14.336 32 32c0 194.944-155.456 353.6-346.496 353.6-17.664 0-32-14.336-32-32s14.336-32 32-32zM288 534.080c29.632 0 53.76-24.96 53.76-55.68 0-17.664 14.336-32 32-32s32 14.336 32 32c0 65.984-52.864 119.68-117.76 119.68-17.664 0-32-14.336-32-32s14.336-32 32-32zM870.080 319.808c-30.464 10.624-192.384 64.192-358.080 64.192-80.128 0-159.616-15.232-224-30.976v94.976c0 17.664-14.336 32-32 32s-32-14.336-32-32v-111.68c-4.096-1.088-8.512-2.304-12.352-3.392-21.312-5.888-45.504-12.608-51.648-12.928-70.464 0-96-57.408-96-96v-64c0-70.464 57.408-96 96-96h704c70.464 0 96 57.408 96 96v64c0 66.816-51.712 93.248-89.92 95.808zM896 160.384c-0.384-14.784-6.272-32.384-32-32.384h-703.616c-14.784 0.384-32.384 6.272-32.384 32v63.744c0.384 14.784 6.336 32.256 32 32.256 13.056 0 30.528 4.672 68.736 15.232 65.792 18.24 175.872 48.768 283.264 48.768 168.448 0 339.392-61.44 341.056-62.080 3.264-1.216 7.104-1.856 10.56-1.92 14.784-0.384 32.384-6.272 32.384-32v-63.616zM448 256h-64c-17.664 0-32-14.336-32-32s14.336-32 32-32h64c17.664 0 32 14.336 32 32s-14.336 32-32 32zM640 256h-64c-17.664 0-32-14.336-32-32s14.336-32 32-32h64c17.664 0 32 14.336 32 32s-14.336 32-32 32z" />
<glyph unicode="&#xe93c;" glyph-name="history" d="M783.488 719.552c-72.512 72.512-168.896 112.448-271.488 112.448-78.208 0-152.832-23.36-216-66.624l2.624 11.648c3.84 17.28-6.976 34.368-24.256 38.208-17.216 3.904-34.368-7.040-38.272-24.256l-19.712-88.32c-3.904-17.28 6.976-34.368 24.256-38.208l88.32-19.712c2.432-0.512 4.736-0.768 7.040-0.768 14.656 0 27.904 10.112 31.168 25.024 3.84 17.28-6.976 34.368-24.256 38.208l-13.44 3.008c53.248 37.248 116.224 57.792 182.528 57.792 85.44 0 165.824-33.28 226.24-93.696s93.76-140.8 93.76-226.304-33.344-165.888-93.76-226.24c-60.352-60.416-140.736-93.76-226.24-93.76s-165.824 33.344-226.304 93.76-93.696 140.8-93.696 226.24c0 17.664-14.336 32-32 32s-32-14.336-32-32c0-102.592 39.936-198.976 112.448-271.488 72.512-72.576 168.96-112.512 271.552-112.512 102.656 0 199.040 39.936 271.488 112.512 72.576 72.448 112.512 168.832 112.512 271.488 0 102.592-39.936 199.040-112.512 271.552zM512 704c-17.664 0-32-14.272-32-32v-224c0-11.008 5.696-21.312 15.040-27.136l128-80c5.248-3.328 11.136-4.864 16.96-4.864 10.624 0 21.056 5.312 27.136 15.040 9.344 14.912 4.8 34.688-10.176 44.032l-112.96 70.656v206.272c0 17.728-14.336 32-32 32z" />
<glyph unicode="&#xe93d;" glyph-name="timer" d="M772.224 664.256l50.432 50.432c12.48 12.48 12.48 32.768 0 45.248s-32.768 12.48-45.248 0l-55.872-55.872c-51.904 33.984-112.384 55.616-177.536 60.992v68.288h64c17.664 0 32 14.336 32 32s-14.336 32-32 32h-192c-17.664 0-32-14.336-32-32s14.336-32 32-32h64v-68.224c-196.8-16.384-352-181.504-352-382.464 0-211.776 172.224-384 384-384s384 172.224 384 384c0 111.36-47.872 211.392-123.776 281.6zM512 62.656c-176.448 0-320 143.552-320 320s143.552 320 320 320 320-143.552 320-320-143.552-320-320-320zM688.448 314.112l-144.448 86.72v205.888c0 17.664-14.336 32-32 32s-32-14.336-32-32v-224c0-11.264 5.888-21.696 15.552-27.456l160-96c5.12-3.136 10.816-4.544 16.448-4.544 10.816 0 21.44 5.568 27.456 15.552 9.088 15.104 4.16 34.816-11.008 43.84z" />
<glyph unicode="&#xe93e;" glyph-name="map-pin" d="M512 0c-5.696 0-11.392 1.472-16.448 4.544-15.040 9.024-367.552 223.68-367.552 523.456 0 216.704 157.888 368 384 368 226.048 0 384-151.296 384-368 0-299.776-352.512-514.432-367.552-523.456-5.056-3.072-10.752-4.544-16.448-4.544zM512 832c-188.416 0-320-124.992-320-304 0-229.696 252.352-412.992 320-457.92 67.584 44.992 320 228.672 320 457.92 0 179.008-131.584 304-320 304zM512.576 384c-88.576 0-160.576 72-160.576 160.576s72 160.576 160.576 160.576c88.576 0 160.576-72 160.576-160.576s-72-160.576-160.576-160.576zM512.576 641.152c-53.248 0-96.576-43.328-96.576-96.576s43.328-96.576 96.576-96.576 96.576 43.328 96.576 96.576-43.328 96.576-96.576 96.576z" />
<glyph unicode="&#xe93f;" glyph-name="news" d="M864 576c-17.472 0-31.552-14.080-31.744-31.616-0.256-17.536 13.888-31.936 31.36-32.384 14.784-0.384 32.384-6.208 32.384-32v-383.616c-0.384-14.784-6.272-32.384-32-32.384h-64c-25.728 0-31.616 17.6-32 32v704c0 70.464-57.408 96-96 96h-512c-70.464 0-96-57.408-96-96v-704c0-70.464 57.408-96 96-96h704c70.464 0 96 57.408 96 96v384c0 70.464-57.408 96-96 96zM160.384 64c-14.784 0.384-32.384 6.272-32.384 32v703.616c0.384 14.784 6.208 32.384 32 32.384h511.616c14.784-0.384 32.384-6.208 32.384-32v-704c0-9.856 1.664-20.928 5.312-32h-548.928zM224 512h192c17.664 0 32 14.336 32 32v192c0 17.664-14.336 32-32 32h-192c-17.664 0-32-14.336-32-32v-192c0-17.664 14.336-32 32-32zM256 704h128v-128h-128v128zM608 768h-64c-17.664 0-32-14.336-32-32s14.336-32 32-32h64c17.664 0 32 14.336 32 32s-14.336 32-32 32zM608 640h-64c-17.664 0-32-14.336-32-32s14.336-32 32-32h64c17.664 0 32 14.336 32 32s-14.336 32-32 32zM608 512h-64c-17.664 0-32-14.336-32-32s14.336-32 32-32h64c17.664 0 32 14.336 32 32s-14.336 32-32 32zM608 384h-384c-17.664 0-32-14.336-32-32s14.336-32 32-32h384c17.664 0 32 14.336 32 32s-14.336 32-32 32zM608 256h-384c-17.664 0-32-14.336-32-32s14.336-32 32-32h384c17.664 0 32 14.336 32 32s-14.336 32-32 32z" />
<glyph unicode="&#xe940;" glyph-name="change" d="M373.056 377.088c-16.384 6.528-35.072-1.408-41.6-17.856l-30.464-76.096c-32.448 45.568-58.688 105.984-58.688 164.8 0 72 28.032 139.776 78.976 190.72 50.88 50.944 118.656 78.976 190.72 78.976 17.664 0 32 14.336 32 32s-14.336 32-32 32c-89.152 0-172.992-34.688-235.968-97.728-63.040-63.040-97.728-146.816-97.728-235.968 0-59.008 21.44-124.352 56.96-181.184l-70.016 11.648c-17.408 3.264-33.92-8.832-36.8-26.304-2.88-17.408 8.896-33.92 26.304-36.8l150.848-25.152c1.792-0.32 3.52-0.448 5.248-0.448 0 0 0 0 0 0s0 0 0 0 0 0 0 0 0 0 0.064 0c2.112 0 4.224 0.192 6.336 0.64 0.64 0.128 1.088 0.64 1.728 0.832 4.48 1.216 8.768 3.008 12.288 5.952 0.064 0 0.064 0.064 0.128 0.064 3.584 2.944 6.144 6.912 8.128 11.264 0.256 0.576 0.832 0.832 1.024 1.408l50.304 125.696c6.592 16.32-1.408 34.944-17.792 41.536zM869.248 680.768l-150.848 25.152c-3.712 0.704-7.296 0.384-10.816-0.256-0.32-0.064-0.576 0.128-0.832 0.064-0.064 0-0.064-0.064-0.128-0.064-4.864-1.024-9.216-3.2-13.056-6.272-1.024-0.768-1.664-1.792-2.56-2.688-2.496-2.496-4.544-5.248-6.144-8.512-0.32-0.704-1.088-1.152-1.408-1.92l-50.24-125.76c-6.592-16.384 1.344-35.008 17.792-41.6 16.32-6.656 35.008 1.408 41.536 17.856l30.464 76.16c32.448-45.568 58.688-106.048 58.688-164.864 0-72.064-28.032-139.84-78.912-190.72-51.008-50.944-118.72-78.976-190.72-78.976-17.664 0-32-14.336-32-32s14.336-32 32-32c89.088 0 172.864 34.688 236.032 97.728 62.976 63.040 97.664 146.88 97.664 236.032 0 59.072-21.376 124.352-56.896 181.248l69.952-11.648c1.728-0.32 3.584-0.448 5.312-0.448 15.296 0 28.864 11.072 31.488 26.752 2.88 17.28-8.96 33.792-26.368 36.736z" />
<glyph unicode="&#xe941;" glyph-name="umbrella-numur" d="M480 480c0-17.664 14.336-32 32-32s32 14.336 32 32v59.264c36.992-2.24 76.48-9.088 116.096-24.96 8.448-3.456 18.048-3.072 26.176 1.088 1.152 0.576 114.944 56.256 227.392 0 4.544-2.24 9.472-3.392 14.336-3.392 7.104 0 14.208 2.432 20.032 7.040 9.728 7.808 14.016 20.608 11.008 32.704-0.64 2.752-70.848 263.040-415.040 278.72v33.536c0 17.664-14.336 32-32 32s-32-14.336-32-32v-33.472c-344.192-15.744-414.336-276.032-415.040-278.784-3.008-12.096 1.28-24.896 11.008-32.704 9.792-7.872 23.168-9.216 34.368-3.648 1.152 0.576 114.944 56.256 227.392 0 8.192-4.16 17.792-4.544 26.176-1.088 0.832 0.32 48.832 18.304 116.096 24v-58.304zM353.664 578.56c-74.88 33.28-148.032 28.928-199.552 17.92 41.408 68.8 139.648 171.52 357.888 171.52 216.576 0 315.008-101.12 356.928-169.92-88.96 18.304-167.232-7.168-197.76-19.52-53.504 19.392-106.304 25.984-153.536 25.984-76.096 0-137.664-17.216-163.968-25.984zM864 384h-384c-70.464 0-96-57.408-96-96v-192c0-70.464 57.408-96 96-96h384c70.464 0 96 57.408 96 96v192c0 70.464-57.408 96-96 96zM480 320h383.616c14.784-0.384 32.384-6.208 32.384-32v-96h-448v95.744c0.384 14.784 6.336 32.256 32 32.256zM864 64h-383.616c-14.784 0.384-32.384 6.208-32.384 32v32h448v-31.616c-0.384-14.784-6.208-32.384-32-32.384z" />
<glyph unicode="&#xe942;" glyph-name="umbrella" d="M544 829.824v34.176c0 17.664-14.336 32-32 32s-32-14.336-32-32v-34.176c-346.176-22.912-414.912-404.544-415.552-408.576-1.984-11.904 2.88-23.872 12.544-30.976 9.6-7.104 22.528-8.256 33.344-2.88 1.152 0.576 114.944 56.256 227.392 0 8.192-4.096 17.728-4.48 26.176-1.088 0.832 0.32 48.832 18.304 116.096 24v-250.304c0-38.592 25.536-96 96-96s96 57.408 96 96c0 17.472-14.080 31.552-31.616 31.744-0.128 0.064-0.256 0.064-0.384 0.064-17.344 0-31.552-14.080-32-31.424-0.384-14.784-6.272-32.384-32-32.384-25.792 0-31.616 17.6-32 32v251.2c36.992-2.24 76.48-9.088 116.096-24.96 8.576-3.392 18.048-2.944 26.176 1.088 1.088 0.576 115.136 56.192 227.392 0 4.544-2.176 9.472-3.328 14.336-3.328 6.656 0 13.376 2.112 19.008 6.272 9.664 7.168 14.592 19.136 12.544 30.976-0.64 4.032-69.376 385.664-415.552 408.576zM671.104 450.56c-53.504 19.392-106.24 25.984-153.472 25.984-76.096 0-137.664-17.28-163.968-25.984-81.344 36.096-160.512 28.032-212.288 14.912 31.296 100.48 124.8 302.528 370.624 302.528 244.608 0 338.432-200.064 370.176-300.992-94.592 24.064-179.072-3.456-211.072-16.448z" />
<glyph unicode="&#xe943;" glyph-name="loan-shop" d="M864 384h-384c-70.464 0-96-57.408-96-96v-192c0-70.464 57.408-96 96-96h384c70.464 0 96 57.408 96 96v192c0 70.464-57.408 96-96 96zM480 320h383.616c14.784-0.384 32.384-6.272 32.384-32v-96h-448v95.744c0.384 14.784 6.336 32.256 32 32.256zM864 64h-383.616c-14.784 0.384-32.384 6.272-32.384 32v32h448v-31.616c-0.384-14.784-6.272-32.384-32-32.384zM288 640c17.664 0 32 14.336 32 32 0 1.792 0.384 14.656 3.008 32h249.792c2.752-17.344 3.2-30.336 3.2-32.064 0.064-17.6 14.4-31.936 32-31.936h0.064c17.664 0.064 31.936 14.336 31.936 32 0 9.728-0.64 20.544-2.048 32h69.824l28.48-227.968c2.176-17.6 18.432-29.568 35.776-27.776 17.472 2.176 29.952 18.176 27.776 35.712l-32 256c-2.048 16-15.68 28.032-31.808 28.032h-113.792c-23.744 65.152-74.752 128-174.208 128s-150.464-62.848-174.208-128h-113.792c-16.448 0-30.208-12.48-31.872-28.8l-64-640c-0.896-9.024 2.048-17.92 8.128-24.704 6.080-6.656 14.72-10.496 23.744-10.496h192c17.664 0 32 14.336 32 32s-14.336 32-32 32h-156.608l57.6 576h69.056c-1.408-11.456-2.048-22.272-2.048-32 0-17.664 14.336-32 32-32zM448 832c55.424 0 86.016-30.080 103.872-64h-208.064c17.728 33.92 48.384 64 104.192 64z" />
<glyph unicode="&#xe944;" glyph-name="loan-cons" d="M864 384h-384c-70.464 0-96-57.408-96-96v-192c0-70.464 57.408-96 96-96h384c70.464 0 96 57.408 96 96v192c0 70.464-57.408 96-96 96zM480 320h383.616c14.784-0.384 32.384-6.272 32.384-32v-96h-448v95.744c0.384 14.784 6.336 32.256 32 32.256zM864 64h-383.616c-14.784 0.384-32.384 6.272-32.384 32v32h448v-31.616c-0.384-14.784-6.272-32.384-32-32.384zM288 384h-32v32c0 38.592-25.536 96-96 96h-32v128h32c38.592 0 96 25.536 96 96v32h448v-32c0-38.592 25.536-96 96-96h32v-160c0-17.664 14.336-32 32-32s32 14.336 32 32v256c0 70.464-57.408 96-96 96h-640c-70.464 0-96-57.408-96-96v-320c0-38.592 25.536-96 96-96h128c17.664 0 32 14.336 32 32s-14.336 32-32 32zM832 736v-32h-32c-25.728 0-31.616 17.6-32 32v32h31.616c14.784-0.384 32.384-6.208 32.384-32zM160 768h32v-32c0-25.792-17.6-31.616-32-32h-32v31.616c0.384 14.784 6.208 32.384 32 32.384zM128 416v32h32c25.792 0 31.616-17.6 32-32v-32h-32c-25.792 0-31.616 17.6-32 32zM448 640v-55.040l-39.744-9.92c-17.152-4.288-27.584-21.696-23.296-38.784 3.648-14.592 16.64-24.256 31.040-24.256 2.56 0 5.184 0.32 7.808 0.96l24.192 6.080v-39.040c0-17.664 14.336-32 32-32s32 14.336 32 32v55.040l39.744 9.92c17.152 4.288 27.584 21.632 23.296 38.784-4.288 17.216-21.76 27.712-38.784 23.296l-24.256-6.080v39.040h64c17.664 0 32 14.336 32 32s-14.336 32-32 32h-192c-17.664 0-32-14.336-32-32s14.336-32 32-32h64z" />
<glyph unicode="&#xe945;" glyph-name="warning" d="M559.744 206.976c0-26.51-21.49-48-48-48s-48 21.49-48 48c0 26.51 21.49 48 48 48s48-21.49 48-48zM511.744 320.96c0 0-0.064 0-0.128 0-15.424 0.064-28.608 11.136-31.36 26.24-56 308.224-16.064 356.16-2.88 371.904 13.504 16.192 28.544 17.92 34.368 17.92 2.624 0 5.248-0.32 7.744-0.96 61.952-15.488 69.888-146.368 23.68-389.056-2.88-15.104-16.064-26.048-31.424-26.048z" />
<glyph unicode="&#xe946;" glyph-name="slide-line" d="M736 128c-17.664 0-32 14.336-32 32v576c0 17.664 14.336 32 32 32s32-14.336 32-32v-576c0-17.664-14.336-32-32-32zM288 128c0 0-0.064 0-0.128 0-17.664 0.064-31.936 14.464-31.872 32.128l1.984 576c0.064 17.6 14.4 31.872 32 31.872 0 0 0.064 0 0.128 0 17.664-0.064 31.936-14.464 31.872-32.128l-1.984-576c-0.064-17.6-14.4-31.872-32-31.872zM512 128c-17.664 0-32 14.336-32 32v576c0 17.664 14.336 32 32 32s32-14.336 32-32v-576c0-17.664-14.336-32-32-32z" />
<glyph unicode="&#xe947;" glyph-name="clear" d="M800 768h-512c-10.048 0-19.584-4.736-25.6-12.8-198.4-264.512-198.4-296.64-198.4-307.2s0-42.688 198.4-307.2c6.016-8.064 15.552-12.8 25.6-12.8h512c126.592 0 160 104.704 160 160v320c0 126.592-104.704 160-160 160zM896 288.192c-0.192-16.064-5.696-96.192-96-96.192h-496c-77.44 103.872-160.96 223.808-174.848 256 13.952 32.192 97.472 152.064 174.848 256h495.808c16.064-0.192 96.192-5.632 96.192-96v-319.808zM726.656 598.656c-12.48 12.48-32.768 12.48-45.248 0l-105.408-105.408-105.344 105.408c-12.48 12.48-32.768 12.48-45.248 0s-12.48-32.768 0-45.248l105.344-105.408-105.408-105.344c-12.48-12.48-12.48-32.768 0-45.248 6.272-6.272 14.464-9.408 22.656-9.408s16.384 3.136 22.656 9.344l105.344 105.408 105.344-105.344c6.272-6.272 14.464-9.408 22.656-9.408s16.384 3.136 22.656 9.344c12.48 12.48 12.48 32.768 0 45.248l-105.408 105.408 105.344 105.344c12.544 12.544 12.544 32.768 0.064 45.312z" />
<glyph unicode="&#xe948;" glyph-name="money" d="M894.72 36.928c-0.704 2.176-64 221.44-62.72 374.784 1.216 143.040-129.472 237.44-185.344 271.168l55.68 166.912c4.672 14.080-0.96 29.44-13.504 37.312-12.672 7.744-28.864 5.888-39.424-4.48-0.64-0.704-74.24-72.512-114.752-32-77.12 77.12-188.096 41.344-192.768 39.744-13.056-4.352-21.888-16.576-21.888-30.4 0-29.376 33.728-120.704 56-177.856-56.512-34.368-185.152-128.448-184-270.336 1.28-153.344-62.080-372.608-62.72-374.784-2.816-9.6-0.896-20.032 5.12-28.096s15.552-12.8 25.6-12.8h704c10.048 0 19.584 4.736 25.6 12.8 6.016 8 7.936 18.432 5.12 28.032zM201.856 59.968c18.944 73.152 55.168 229.376 54.144 352.256-1.152 137.792 172.544 226.24 174.272 227.136 14.848 7.488 21.632 25.088 15.424 40.512-21.888 54.784-45.312 118.976-55.936 155.072 27.072 2.752 68.992 1.024 99.584-29.568 37.504-37.568 83.264-36.672 123.52-21.44l-34.368-103.232c-4.672-8-28.032-44.736-66.496-44.736-17.664 0-32-14.336-32-32s14.336-32 32-32c51.2 0 85.952 29.888 105.536 53.568 47.808-29.76 151.36-106.624 150.464-213.312-1.024-122.944 35.2-279.104 54.144-352.256h-620.288zM608 443.968h-192c-17.664 0-32-14.336-32-32s14.336-32 32-32h64v-54.976l-39.744-9.92c-17.152-4.288-27.584-21.696-23.296-38.784 3.648-14.592 16.64-24.256 30.976-24.256 2.56 0 5.184 0.32 7.808 0.96l24.256 6.016v-38.976c0-17.664 14.336-32 32-32s32 14.336 32 32v54.976l39.744 9.92c17.216 4.288 27.584 21.696 23.296 38.784s-21.44 27.456-38.784 23.36l-24.256-6.080v38.976h64c17.664 0 32 14.336 32 32s-14.336 32-32 32z" />
<glyph unicode="&#xe949;" glyph-name="camera" d="M864 64h-704c-70.464 0-96 51.328-96 85.824v484.352c0 62.976 57.408 85.824 96 85.824h109.44l54.784 95.872c5.696 9.984 16.32 16.128 27.776 16.128h320c11.52 0 22.080-6.144 27.84-16.128l54.72-95.872h109.44c70.464 0 96-51.328 96-85.824v-484.352c0-62.976-57.408-85.824-96-85.824zM160 656c-7.296-0.128-32-2.112-32-21.824v-484.352c0.704-14.272 11.456-21.824 32-21.824h704c7.296 0.128 32 2.048 32 21.824v484.352c-0.704 14.272-11.52 21.824-32 21.824h-128c-11.52 0-22.080 6.144-27.84 16.128l-54.72 95.872h-282.88l-54.784-95.872c-5.696-9.984-16.32-16.128-27.776-16.128h-128zM512 192c-123.52 0-224 100.48-224 224s100.48 224 224 224 224-100.48 224-224-100.48-224-224-224zM512 576c-88.192 0-160-71.808-160-160 0-88.256 71.808-160 160-160 88.256 0 160 71.744 160 160 0 88.192-71.744 160-160 160z" />
<glyph unicode="&#xe94a;" glyph-name="mute-microphone" d="M909.248 845.248c-25.024 25.024-65.472 25.024-90.496 0l-117.824-117.824c-5.184 34.88-18.176 78.784-50.048 113.472-33.664 36.544-80.384 55.104-138.88 55.104s-105.216-18.56-138.88-55.104c-61.056-66.304-53.376-167.296-53.12-168.896v-128h-64c-17.664 0-32-14.336-32-32 0-85.952 17.024-156.544 48.64-212.864l-157.888-157.888c-25.024-25.024-25.024-65.472 0-90.496 12.48-12.48 28.864-18.752 45.248-18.752s32.768 6.272 45.248 18.752l153.856 153.856c45.632-29.696 91.84-40.192 120.896-43.264v-97.344h-128c-17.664 0-32-14.336-32-32s14.336-32 32-32h320c17.664 0 32 14.336 32 32s-14.336 32-32 32h-128v97.472c38.336 4.16 102.208 19.008 157.376 70.848 65.408 61.504 98.624 155.648 98.624 279.68 0 17.664-14.336 32-32 32s-32-14.336-32-32c0-105.28-26.176-183.424-77.824-232.384-58.88-55.872-133.44-55.808-145.856-55.68-0.128 0-0.192 0.064-0.32 0.064s-0.192-0.064-0.32-0.064c-0.448 0-1.472 0-1.664 0-0.64 0.064-51.712-2.112-104.448 27.136l23.552 23.552c24.32-11.904 51.712-18.624 82.88-18.624 53.952 0 98.048 17.984 131.072 53.44 69.312 74.432 61.248 199.552 60.928 202.56v31.872c0 0.064 0 0.064 0 0.128s0 0.064 0 0.128v5.376l205.248 205.248c25.024 25.024 25.024 65.472 0 90.496zM420.224 797.504c21.312 23.232 51.328 34.496 91.776 34.496 40.32 0 70.272-11.2 91.584-34.24 41.984-45.376 36.608-122.432 36.416-125.76h-32c-17.664 0-32-14.336-32-32 0-10.24 5.12-19.008 12.672-24.832l-195.008-195.008c-12.16 45.248-9.728 88.96-9.728 89.6 0.064 0.768-0.192 1.472-0.192 2.24h32.256c17.664 0 32 14.336 32 32s-14.336 32-32 32h-32.064v32h32.064c17.664 0 32 14.336 32 32s-14.336 32-32 32h-32.128v2.688c-0.064 0.768-5.184 77.696 36.352 122.816zM288.832 480h31.168c1.344-28.224 7.616-69.696 24.064-109.44l-24.064-24.064c-17.28 37.056-28.288 81.024-31.168 133.504zM596.096 352.896c-20.736-22.144-48.192-32.896-84.096-32.896-12.16 0-23.040 1.728-33.28 4.224l161.28 161.28c-1.216-33.664-8.448-94.72-43.904-132.608z" />
<glyph unicode="&#xe94b;" glyph-name="mute-video-call" d="M943.104 700.224c-10.368 5.568-22.976 4.928-32.896-1.6l-142.208-94.848v9.728l141.248 141.248c25.024 25.024 25.024 65.472 0 90.496s-65.472 25.024-90.496 0l-91.712-91.712c-14.144 8.64-31.936 14.464-55.040 14.464h-512c-38.592 0-96-22.848-96-85.824v-468.352c0-25.088 13.76-58.88 48.32-75.584-23.552-25.088-23.36-64.32 1.088-88.832 12.48-12.48 28.864-18.752 45.248-18.752s32.768 6.272 45.248 18.752l78.592 78.592h389.504c38.592 0 96 22.848 96 85.824v78.4l142.272-94.848c5.376-3.584 11.52-5.376 17.728-5.376 5.184 0 10.368 1.28 15.104 3.84 10.368 5.504 16.896 16.32 16.896 28.16v448c0 11.84-6.528 22.656-16.896 28.224zM128 682.176c0 19.712 24.704 21.696 32 21.824h512c1.856 0 3.264-0.384 4.992-0.512l-511.488-511.488h-5.504c-20.544 0-31.296 7.552-32 21.824v468.352zM704 352v-138.176c0-19.776-24.704-21.696-32-21.824h-325.504l357.504 357.504v-197.504zM896 283.84l-128 85.312v157.696l128 85.312v-328.32z" />
<glyph unicode="&#xe94c;" glyph-name="camera-switch" d="M864 720h-109.44l-54.72 95.872c-5.76 9.984-16.32 16.128-27.84 16.128h-320c-11.456 0-22.080-6.144-27.776-16.128l-54.784-95.872h-109.44c-38.592 0-96-22.848-96-85.824v-484.352c0-34.496 25.536-85.824 96-85.824h704c38.592 0 96 22.848 96 85.824v484.352c0 34.496-25.536 85.824-96 85.824zM896 149.824c0-19.776-24.704-21.696-32-21.824h-704c-20.544 0-31.296 7.552-32 21.824v484.352c0 19.712 24.704 21.696 32 21.824h128c11.456 0 22.080 6.144 27.776 16.128l54.784 95.872h282.88l54.72-95.872c5.76-9.984 16.32-16.128 27.84-16.128h128c20.48 0 31.296-7.552 32-21.824v-484.352zM427.904 381.696c-16.256 6.528-35.072-1.344-41.6-17.792l-11.008-27.456c-13.568 24-23.296 52.096-23.296 79.552 0 42.752 16.64 82.88 46.848 113.152s70.4 46.848 113.152 46.848c17.664 0 32 14.336 32 32s-14.336 32-32 32c-59.84 0-116.096-23.296-158.4-65.6s-65.6-98.56-65.6-158.4c0-32.448 10.24-67.392 26.688-100.032l-21.44 3.584c-17.6 3.008-33.92-8.832-36.8-26.304-2.88-17.408 8.896-33.92 26.304-36.8l96-16c1.728-0.32 3.52-0.448 5.248-0.448 0 0 0 0 0 0s0 0 0 0 0 0 0 0 0 0 0.064 0c2.112 0 4.224 0.192 6.336 0.64 0.64 0.128 1.088 0.64 1.728 0.832 4.48 1.216 8.768 3.008 12.288 5.952 0.064 0 0.064 0.064 0.128 0.064 3.584 2.944 6.144 6.912 8.128 11.264 0.256 0.576 0.832 0.832 1.024 1.408l32 80c6.592 16.32-1.408 34.944-17.792 41.536zM741.248 575.616l-96 16c-3.264 0.576-6.4 0.128-9.536-0.32-0.704-0.064-1.408 0.256-2.176 0.128-0.128 0-0.256-0.128-0.384-0.192-4.672-1.024-8.896-3.2-12.672-6.080-1.088-0.896-1.792-2.048-2.816-3.008-2.432-2.432-4.416-5.12-5.952-8.256-0.384-0.704-1.088-1.152-1.408-1.92l-32-80c-6.592-16.448 1.408-35.072 17.792-41.6s35.072 1.408 41.536 17.856l11.008 27.456c13.696-24.064 23.36-52.16 23.36-79.616 0-42.688-16.64-82.88-46.848-113.152s-70.464-46.848-113.152-46.848c-17.664 0-32-14.336-32-32s14.336-32 32-32c59.84 0 116.032 23.296 158.4 65.6s65.6 98.56 65.6 158.4c0 32.448-10.24 67.392-26.688 100.032l21.44-3.584c1.728-0.32 3.584-0.448 5.312-0.448 15.296 0 28.864 11.072 31.488 26.752 2.944 17.408-8.896 33.92-26.304 36.8z" />
<glyph unicode="&#xe94d;" glyph-name="play" d="M449.728 602.624c-9.792 6.528-22.4 7.168-32.832 1.6s-16.896-16.384-16.896-28.224v-256c0-11.84 6.528-22.656 16.896-28.16 4.736-2.56 9.92-3.84 15.104-3.84 6.208 0 12.416 1.792 17.728 5.376l191.936 128c8.896 5.952 14.272 15.936 14.272 26.624s-5.376 20.672-14.272 26.624l-191.936 128zM512 832c-211.776 0-384-172.224-384-384s172.224-384 384-384 384 172.224 384 384-172.224 384-384 384zM512 128c-176.448 0-320 143.552-320 320s143.552 320 320 320 320-143.552 320-320-143.552-320-320-320z" />
<glyph unicode="&#xe94e;" glyph-name="clipper" d="M423.104 57.984c-55.936 0-116.992 21.056-175.936 79.936-93.312 93.376-88 187.84-67.072 250.56 21.952 65.792 65.28 109.632 67.136 111.488l294.144 294.144c39.104 39.168 141.504 84.864 248.896-22.592 68.8-68.8 71.872-132.608 62.336-174.080-10.24-44.416-36.672-71.872-39.68-74.816l-305.408-305.408c-2.048-2.048-21.312-20.608-51.648-28.224-28.736-7.104-72.448-6.080-118.080 39.552-74.304 74.176-33.408 147.648-11.392 169.664l226.304 226.24c12.48 12.48 32.768 12.48 45.248 0s12.48-32.768 0-45.248l-226.304-226.24c-7.488-7.936-29.76-38.144 11.328-79.168 19.968-20.032 38.592-27.712 57.344-22.656 12.992 3.264 21.824 11.328 21.888 11.392l305.408 305.408c6.656 6.912 64.192 71.68-22.656 158.4-38.656 38.656-77.12 53.824-114.432 45.184-26.624-6.144-43.776-22.4-43.968-22.592l-294.080-294.208c-13.76-13.952-131.136-140.352 0-271.552 134.272-134.272 265.984-5.504 271.552 0l180.992 181.056c12.48 12.48 32.768 12.48 45.248 0s12.48-32.768 0-45.248l-180.992-181.056c-36.864-36.864-106.176-79.936-186.176-79.936z" />
<glyph unicode="&#xe94f;" glyph-name="gift" d="M800 608.896h-185.024c50.688 21.696 104.064 54.976 118.208 103.488 7.488 25.6 6.848 65.728-38.592 111.104-44.096 44.096-81.152 43.584-104.512 35.136-36.864-13.12-61.376-55.488-78.080-101.696-16.704 46.208-41.216 88.576-78.144 101.76-23.296 8.384-60.416 8.896-104.512-35.2-45.376-45.376-46.016-85.504-38.528-111.104 14.144-48.576 67.52-81.792 118.208-103.488h-185.024c-38.592 0-96-22.848-96-85.824v-106.176c0-17.664 14.336-32 32-32v-266.176c0-34.496 25.536-85.824 96-85.824h512c38.592 0 96 22.848 96 85.824v266.176c17.664 0 32 14.336 32 32v106.176c0 34.496-25.536 85.824-96 85.824zM832 523.072v-74.176h-192v96h160c20.48 0 31.296-7.552 32-21.824zM576 544.896v-96h-128v96h128zM611.648 798.4c1.28 0.448 2.624 0.64 4.032 0.64 11.584 0 27.136-14.144 33.728-20.8 18.688-18.688 26.176-34.816 22.4-48-8.896-30.208-66.688-59.392-121.344-77.44 12.544 70.080 36.608 136.768 61.184 145.6zM352.256 730.304c-3.84 13.184 3.712 29.312 22.4 48 6.656 6.592 22.144 20.736 33.728 20.736 1.344 0 2.688-0.192 4.032-0.64 24.448-8.768 48.512-75.456 61.056-145.6-54.592 18.048-112.448 47.232-121.216 77.504zM192 523.072c0 19.712 24.704 21.696 32 21.824h160v-96h-192v74.176zM224 118.656v266.24h160v-288h-128c-20.544 0-31.296 7.552-32 21.76zM448 96.896v288h128v-288h-128zM768 96.896h-128v288h160v-266.176c0-19.776-24.704-21.696-32-21.824z" />
<glyph unicode="&#xe950;" glyph-name="clock" d="M512 64c-211.776 0-384 172.224-384 384s172.224 384 384 384 384-172.224 384-384-172.224-384-384-384zM512 768c-176.448 0-320-143.552-320-320s143.552-320 320-320 320 143.552 320 320-143.552 320-320 320zM672 320c-5.632 0-11.328 1.408-16.448 4.544l-160 96c-9.664 5.824-15.552 16.192-15.552 27.456v224c0 17.728 14.336 32 32 32s32-14.336 32-32v-205.888l144.448-86.656c15.168-9.088 20.096-28.736 11.008-43.904-6.016-9.984-16.64-15.552-27.456-15.552z" />
<glyph unicode="&#xe951;" glyph-name="warning-circle1" d="M560 208c0-26.51-21.49-48-48-48s-48 21.49-48 48c0 26.51 21.49 48 48 48s48-21.49 48-48zM512 0c-247.040 0-448 201.024-448 448 0 247.040 200.96 448 448 448 246.976 0 448-200.96 448-448 0-246.976-201.024-448-448-448zM512 832c-211.776 0-384-172.224-384-384s172.224-384 384-384 384 172.224 384 384-172.224 384-384 384zM512 321.984c-14.72 1.472-28.736 11.072-31.488 26.24-56 308.16-16.064 356.032-2.88 371.84 13.504 16.192 28.544 17.92 34.368 17.92 2.624 0 5.248-0.32 7.744-0.96 61.952-15.488 69.888-146.368 23.68-389.056-2.88-15.040-16.064-25.984-31.424-25.984z" />
<glyph unicode="&#xe952;" glyph-name="trash" d="M800 704h-96v32c0 70.464-57.408 96-96 96h-192c-70.464 0-96-57.408-96-96v-32h-96c-17.664 0-32-14.336-32-32s14.336-32 32-32h32v-480c0-38.592 25.536-96 96-96h336c32.192 0 80 25.536 80 96v480h32c17.664 0 32 14.336 32 32s-14.336 32-32 32zM384 735.616c0.384 14.784 6.208 32.384 32 32.384h191.616c14.784-0.384 32.384-6.208 32.384-32v-32h-256v31.616zM704 160c0-19.84-6.080-31.168-16-32h-336c-25.792 0-31.616 17.6-32 32v480h384v-480zM448 512c-17.664 0-32-14.336-32-32v-192c0-17.664 14.336-32 32-32s32 14.336 32 32v192c0 17.664-14.336 32-32 32zM576 512c-17.664 0-32-14.336-32-32v-192c0-17.664 14.336-32 32-32s32 14.336 32 32v192c0 17.664-14.336 32-32 32z" />
</font>
</defs>
</svg>
